<?xml version="1.0" encoding="UTF-8" standalone="no"?>
<!-- Created with Inkscape (http://www.inkscape.org/) -->

<svg
   xmlns:dc="http://purl.org/dc/elements/1.1/"
   xmlns:cc="http://creativecommons.org/ns#"
   xmlns:rdf="http://www.w3.org/1999/02/22-rdf-syntax-ns#"
   xmlns:svg="http://www.w3.org/2000/svg"
   xmlns="http://www.w3.org/2000/svg"
   xmlns:sodipodi="http://sodipodi.sourceforge.net/DTD/sodipodi-0.dtd"
   xmlns:inkscape="http://www.inkscape.org/namespaces/inkscape"
   version="1.1"
   id="svg2"
   width="100"
   height="100"
   viewBox="0 0 100 100"
   sodipodi:docname="car.svg"
   inkscape:version="0.92.1 r">
  <metadata
     id="metadata8">
    <rdf:RDF>
      <cc:Work
         rdf:about="">
        <dc:format>image/svg+xml</dc:format>
        <dc:type
           rdf:resource="http://purl.org/dc/dcmitype/StillImage" />
        <dc:title></dc:title>
      </cc:Work>
    </rdf:RDF>
  </metadata>
  <defs
     id="defs6" />
  <sodipodi:namedview
     pagecolor="#ffffff"
     bordercolor="#666666"
     borderopacity="1"
     objecttolerance="10"
     gridtolerance="10"
     guidetolerance="10"
     inkscape:pageopacity="0"
     inkscape:pageshadow="2"
     inkscape:window-width="1920"
     inkscape:window-height="1011"
     id="namedview4"
     showgrid="false"
     inkscape:zoom="3.9732667"
     inkscape:cx="37.000218"
     inkscape:cy="47.574196"
     inkscape:window-x="0"
     inkscape:window-y="27"
     inkscape:window-maximized="1"
     inkscape:current-layer="svg2" />
  <path
     style="fill:#000000;stroke-width:0.45344293"
     d="m 17.128564,87.241326 c -3.434885,-1.577311 -4.761151,-4.177693 -4.761151,-9.335102 v -3.415388 h -2.176526 c -1.1970901,0 -2.4213861,-0.244859 -2.7206581,-0.544127 -0.717222,-0.71722 -0.747309,-17.523663 -0.03596,-20.086032 0.971243,-3.498521 5.1993541,-6.56562 9.0623501,-6.573887 1.160937,-0.0023 1.226453,-0.17898 3.706125,-9.984318 2.053912,-8.121763 2.786167,-10.337884 3.929618,-11.892737 1.62283,-2.206706 4.419037,-4.217498 6.774831,-4.871879 2.182877,-0.606346 36.915972,-0.606346 39.09885,0 2.355794,0.654381 5.152001,2.665173 6.774832,4.871879 1.143451,1.554853 1.875703,3.770974 3.929618,11.892737 2.47967,9.805338 2.545189,9.981833 3.706125,9.984318 3.862994,0.0081 8.091104,3.075366 9.062347,6.573887 0.711352,2.562369 0.681262,19.368812 -0.03596,20.086032 -0.299272,0.299268 -1.523568,0.544127 -2.720657,0.544127 h -2.176526 v 3.531461 c 0,2.761586 -0.222423,3.971752 -1.020247,5.551025 -3.006059,5.950413 -11.277394,5.950413 -14.283452,0 -0.797825,-1.579273 -1.020248,-2.789439 -1.020248,-5.551025 V 74.490836 H 50.45662 28.691359 l -0.01,3.514184 c -0.01492,5.2646 -1.420972,7.857249 -5.093306,9.391646 -2.193267,0.916415 -4.232376,0.867371 -6.459531,-0.15534 z m 7.367972,-20.831397 c 1.907992,-1.358622 2.989431,-3.83384 2.719876,-6.225321 -0.429672,-3.812046 -3.634718,-6.407354 -7.389967,-5.984083 -8.73728,0.984813 -7.550366,14.059998 1.211812,13.349454 1.177481,-0.09544 2.692911,-0.595064 3.458279,-1.14005 z m 59.854466,0 c 1.907992,-1.358622 2.98943,-3.83384 2.719877,-6.225321 -0.429674,-3.812046 -3.634721,-6.407354 -7.389967,-5.984083 -8.737279,0.984813 -7.550365,14.059998 1.211812,13.349454 1.177482,-0.09544 2.692911,-0.595064 3.458278,-1.14005 z M 70.19849,39.643795 c -1.055973,-4.202261 -2.064988,-7.875152 -2.242257,-8.161977 -0.459438,-0.743386 -34.53979,-0.743386 -34.99923,0 -0.177267,0.286825 -1.186282,3.959716 -2.242253,8.161977 l -1.919948,7.640464 h 21.661817 21.661817 z"
     id="path8709"
     inkscape:connector-curvature="0" />
</svg>
