<?xml version="1.0" encoding="UTF-8" standalone="no"?>
<!-- Generator: Adobe Illustrator 22.0.1, SVG Export Plug-In . SVG Version: 6.00 Build 0)  -->

<svg
   xmlns:dc="http://purl.org/dc/elements/1.1/"
   xmlns:cc="http://creativecommons.org/ns#"
   xmlns:rdf="http://www.w3.org/1999/02/22-rdf-syntax-ns#"
   xmlns:svg="http://www.w3.org/2000/svg"
   xmlns="http://www.w3.org/2000/svg"
   xmlns:sodipodi="http://sodipodi.sourceforge.net/DTD/sodipodi-0.dtd"
   xmlns:inkscape="http://www.inkscape.org/namespaces/inkscape"
   version="1.1"
   id="Ebene_1"
   x="0px"
   y="0px"
   viewBox="1318.634 0 453.5 453.5"
   enable-background="new 1318.634 0 612 792"
   xml:space="preserve"
   inkscape:version="0.91 r13725"
   sodipodi:docname="Aufzug-vorhanden-invertiert.svg"
   width="453.5"
   height="453.5"><metadata
     id="metadata100"><rdf:RDF><cc:Work
         rdf:about=""><dc:format>image/svg+xml</dc:format><dc:type
           rdf:resource="http://purl.org/dc/dcmitype/StillImage" /><dc:title></dc:title></cc:Work></rdf:RDF></metadata><defs
     id="defs98" /><sodipodi:namedview
     pagecolor="#ffffff"
     bordercolor="#666666"
     borderopacity="1"
     objecttolerance="10"
     gridtolerance="10"
     guidetolerance="10"
     inkscape:pageopacity="0"
     inkscape:pageshadow="2"
     inkscape:window-width="1920"
     inkscape:window-height="1056"
     id="namedview96"
     showgrid="false"
     inkscape:zoom="1.0929806"
     inkscape:cx="306"
     inkscape:cy="176.41696"
     inkscape:window-x="0"
     inkscape:window-y="24"
     inkscape:window-maximized="1"
     inkscape:current-layer="Ebene_1" /><polygon
     points="1832.634,562 1412.634,562 1412.634,142 1832.634,142 "
     id="polygon10"
     style="fill:#232856"
     transform="matrix(1.0424983,0,0,1.0433101,-146.20915,-140.65854)" /><polygon
     stroke-miterlimit="3.8637"
     points="1832.634,562 1412.634,562 1412.634,142 1832.634,142 "
     id="polygon14"
     style="fill:none;stroke:#232856;stroke-width:15;stroke-miterlimit:3.86369991"
     transform="matrix(1.0424983,0,0,1.0433101,-146.20915,-140.65854)" /><polygon
     points="1829.533,556.1 1417.134,556.1 1417.134,145.9 1829.533,145.9 "
     id="polygon20"
     style="fill:#232856"
     transform="matrix(1.0424983,0,0,1.0433101,-146.20915,-140.65854)" /><polygon
     stroke-miterlimit="3.8637"
     points="1417.134,556.1 1417.134,145.9 1829.533,145.9 1829.533,556.1 "
     id="polygon24"
     style="fill:none;stroke:#ffffff;stroke-width:2.05767229;stroke-miterlimit:3.86369991;stroke-dasharray:none"
     transform="matrix(1.0662594,0,0,1.0720871,-186.26064,-148.82646)" /><path
     style="fill:#ffffff"
     inkscape:connector-curvature="0"
     id="path28"
     d="m 1423.7234,127.47216 244.4659,0 c 16.68,0 30.2324,13.56303 30.2324,30.25599 l 0,230.57153 c 0,16.69296 -13.5524,30.25599 -30.2324,30.25599 l -244.4659,0 c -16.6799,0 -30.2324,-13.56303 -30.2324,-30.25599 l 0,-230.57153 c 0,-16.69296 13.4493,-30.25599 30.2324,-30.25599 z m -2.6062,6.25986 249.6783,0 c 11.4675,0 20.85,9.38979 20.85,20.8662 l 0,236.30974 c 0,11.47641 -9.3825,20.8662 -20.85,20.8662 l -249.6783,0 c -11.4675,0 -20.85,-9.38979 -20.85,-20.8662 l 0,-236.30974 c 0,-11.47641 9.2793,-20.8662 20.85,-20.8662 z" /><path
     style="fill:none;stroke:#ffffff;stroke-width:0.26072603;stroke-miterlimit:3.86369991"
     inkscape:connector-curvature="0"
     id="path30"
     d="m 1423.7234,127.47216 244.4659,0 c 16.68,0 30.2324,13.56303 30.2324,30.25599 l 0,230.57153 c 0,16.69296 -13.5524,30.25599 -30.2324,30.25599 l -244.4659,0 c -16.6799,0 -30.2324,-13.56303 -30.2324,-30.25599 l 0,-230.57153 c 0,-16.69296 13.4493,-30.25599 30.2324,-30.25599 z m -2.6062,6.25986 249.6783,0 c 11.4675,0 20.85,9.38979 20.85,20.8662 l 0,236.30974 c 0,11.47641 -9.3825,20.8662 -20.85,20.8662 l -249.6783,0 c -11.4675,0 -20.85,-9.38979 -20.85,-20.8662 l 0,-236.30974 c 0,-11.47641 9.2793,-20.8662 20.85,-20.8662 z"
     stroke-miterlimit="3.8637" /><g
     id="g32"
     transform="matrix(1.0424983,0,0,1.0433101,-146.20915,-140.65854)"><g
       id="g34"><g
         id="g36"><g
           id="g38"><path
             d="m 1532.604,305.243 c 0.113,-14.083 11.622,-25.408 25.705,-25.294 14.083,0.114 25.408,11.623 25.295,25.706 -0.114,14.083 -11.623,25.408 -25.706,25.294 -14.083,-0.114 -25.408,-11.623 -25.294,-25.706 z"
             id="path40"
             inkscape:connector-curvature="0"
             style="fill:#232856" /></g></g><g
         id="g42"><g
           id="g44"><path
             d="m 1529.433,344.8 c 0,-4.2 3.401,-7.6 7.6,-7.6 l 40.9,0 c 4.2,0 7.6,3.4 7.6,7.6 l 0,69.8 c 0,4.201 -3.399,7.602 -7.6,7.602 l -40.9,0 c -4.199,0 -7.6,-3.4 -7.6,-7.602 l 0,-69.8 0,0 z"
             id="path46"
             inkscape:connector-curvature="0"
             style="fill:#232856" /></g></g><g
         id="g48"><g
           id="g50"><path
             d="m 1511.733,339.4 c 0,-1.4 1.101,-2.5 2.5,-2.5 l 9.101,0 c 1.399,0 2.5,1.1 2.5,2.5 l 0,83.801 c 0,1.398 -1.101,2.5 -2.5,2.5 l -9.101,0 c -1.399,0 -2.5,-1.102 -2.5,-2.5 l 0,-83.801 0,0 z"
             id="path52"
             inkscape:connector-curvature="0"
             style="fill:#232856" /></g></g><g
         id="g54"><g
           id="g56"><path
             d="m 1589.634,339.9 c 0,-1.4 1.1,-2.5 2.5,-2.5 l 9.1,0 c 1.4,0 2.5,1.1 2.5,2.5 l 0,83.801 c 0,1.398 -1.1,2.5 -2.5,2.5 l -9.1,0 c -1.4,0 -2.5,-1.102 -2.5,-2.5 l 0,-83.801 0,0 z"
             id="path58"
             inkscape:connector-curvature="0"
             style="fill:#232856" /></g></g><g
         id="g60"><g
           id="g62"><path
             d="m 1538.233,429.201 c 0,-1.4 1.101,-2.5 2.5,-2.5 l 10.2,0 c 1.401,0 2.5,1.1 2.5,2.5 l 0,83.799 c 0,1.4 -1.099,2.5 -2.5,2.5 l -10.2,0 c -1.399,0 -2.5,-1.1 -2.5,-2.5 l 0,-83.799 0,0 z"
             id="path64"
             inkscape:connector-curvature="0"
             style="fill:#232856" /></g></g><g
         id="g66"><g
           id="g68"><path
             d="m 1562.533,429.201 c 0,-1.4 1.101,-2.5 2.5,-2.5 l 10.2,0 c 1.4,0 2.5,1.1 2.5,2.5 l 0,83.799 c 0,1.4 -1.1,2.5 -2.5,2.5 l -10.2,0 c -1.399,0 -2.5,-1.1 -2.5,-2.5 l 0,-83.799 0,0 z"
             id="path70"
             inkscape:connector-curvature="0"
             style="fill:#232856" /></g></g><g
         id="g72"><path
           d="m 1666.333,466.301 10.2,0 c 1.4,0 2.5,1.1 2.5,2.5 l 0,44.6 c 0,1.4 -1.1,2.5 -2.5,2.5 l -10.2,0 c -1.399,0 -2.5,-1.1 -2.5,-2.5 l 0,-44.6 c -0.1,-1.301 1.101,-2.5 2.5,-2.5 z"
           id="path74"
           inkscape:connector-curvature="0"
           style="fill:#232856" /></g><g
         id="g76"><path
           d="m 1690.634,466.301 10.199,0 c 1.4,0 2.5,1.1 2.5,2.5 l 0,44.6 c 0,1.4 -1.1,2.5 -2.5,2.5 l -10.199,0 c -1.4,0 -2.5,-1.1 -2.5,-2.5 l 0,-44.6 c -0.101,-1.301 1.099,-2.5 2.5,-2.5 z"
           id="path78"
           inkscape:connector-curvature="0"
           style="fill:#232856" /></g><g
         id="g80"><path
           d="m 1686.187,331.201 c 14.083,-0.029 25.477,-11.469 25.447,-25.552 -0.028,-14.083 -11.469,-25.477 -25.552,-25.448 -14.084,0.029 -25.477,11.469 -25.448,25.552 0.029,14.083 11.47,25.476 25.553,25.448 z"
           id="path82"
           inkscape:connector-curvature="0"
           style="fill:#232856" /><path
           d="m 1750.434,396.899 -48.4,-58.1 c -0.487,-0.812 -3.283,-1.426 -4.906,-1.2 l -27.294,0 c -0.253,0 -0.505,0.014 -0.756,0.038 -1.521,-0.316 -4.55,0.299 -5.144,1.062 l -48.401,58.1 c -0.7,1 -0.5,2.5 0.5,3.199 l 8.7,6.4 c 1,0.801 2.401,0.6 3.2,-0.4 l 23.956,-30.945 -26.356,80.747 c 0,4.199 3.401,7.6 7.601,7.6 l 99.5,0 c 4.199,0 7.6,-3.4 7.6,-7.6 l -25.354,-79.662 23.153,29.96 c 0.8,1 2.2,1.201 3.2,0.4 l 8.7,-6.4 c 1.001,-0.699 1.201,-2.199 0.501,-3.199 z"
           id="path84"
           inkscape:connector-curvature="0"
           style="fill:#232856" /></g></g></g><polygon
     points="1569.233,241.6 1569.233,199.8 1586.934,215.3 1586.934,203 1563.033,179.3 1539.634,203 1539.634,215.3 1557.334,199.7 1557.334,241.6 "
     id="polygon86"
     style="fill:#ffffff"
     transform="matrix(1.0424983,0,0,1.0433101,-146.20915,-140.65854)" /><polygon
     points="1674.884,179 1674.884,220.8 1657.282,205.4 1657.282,217.6 1681.183,241.3 1704.483,217.6 1704.483,205.3 1686.782,220.9 1686.782,179 "
     id="polygon88"
     style="fill:#ffffff"
     transform="matrix(1.0424983,0,0,1.0433101,-146.20915,-140.65854)" /><g
     id="g90"
     transform="matrix(1.0424983,0,0,1.0433101,-146.20915,-140.65854)"><rect
       x="1443.634"
       y="167.33299"
       width="15"
       height="368.66699"
       id="rect92"
       style="fill:#ffffff" /><rect
       x="1785.384"
       y="167.33299"
       width="15"
       height="368.66699"
       id="rect94"
       style="fill:#ffffff" /></g></svg>