<?xml version="1.0" encoding="UTF-8" standalone="no"?>
<!-- Created with Inkscape (http://www.inkscape.org/) -->

<svg
   xmlns:dc="http://purl.org/dc/elements/1.1/"
   xmlns:cc="http://creativecommons.org/ns#"
   xmlns:rdf="http://www.w3.org/1999/02/22-rdf-syntax-ns#"
   xmlns:svg="http://www.w3.org/2000/svg"
   xmlns="http://www.w3.org/2000/svg"
   xmlns:sodipodi="http://sodipodi.sourceforge.net/DTD/sodipodi-0.dtd"
   xmlns:inkscape="http://www.inkscape.org/namespaces/inkscape"
   version="1.1"
   id="svg2"
   width="100"
   height="100"
   viewBox="0 0 100 100"
   sodipodi:docname="home.svg"
   inkscape:version="0.92.1 r">
  <metadata
     id="metadata8">
    <rdf:RDF>
      <cc:Work
         rdf:about="">
        <dc:format>image/svg+xml</dc:format>
        <dc:type
           rdf:resource="http://purl.org/dc/dcmitype/StillImage" />
        <dc:title></dc:title>
      </cc:Work>
    </rdf:RDF>
  </metadata>
  <defs
     id="defs6" />
  <sodipodi:namedview
     pagecolor="#ffffff"
     bordercolor="#666666"
     borderopacity="1"
     objecttolerance="10"
     gridtolerance="10"
     guidetolerance="10"
     inkscape:pageopacity="0"
     inkscape:pageshadow="2"
     inkscape:window-width="1920"
     inkscape:window-height="1011"
     id="namedview4"
     showgrid="false"
     inkscape:zoom="3.9732667"
     inkscape:cx="37.000218"
     inkscape:cy="47.574196"
     inkscape:window-x="0"
     inkscape:window-y="27"
     inkscape:window-maximized="1"
     inkscape:current-layer="svg2" />
  <path
     style="fill:#231f20;fill-opacity:1;stroke-width:0.5003562"
     d="m 22.108036,78.712712 c -0.945146,-0.94515 -1.000151,-1.66056 -0.990612,-12.884177 l 0.0101,-11.883459 13.499517,-11.120868 13.499518,-11.120867 13.499514,11.120867 13.49952,11.120868 0.01011,11.883459 c 0.0096,11.223617 -0.04548,11.939027 -0.990611,12.884177 -0.930487,0.93048 -1.667852,1.00071 -10.50748,1.00071 h -9.506767 v -9.00641 -9.006415 h -6.004274 -6.004275 v 9.006415 9.00641 h -9.506767 c -8.839627,0 -9.576994,-0.0702 -10.507481,-1.00071 z M 12.184654,52.723525 c -0.871645,-1.084647 -1.572106,-2.379318 -1.55658,-2.877048 0.01746,-0.559819 6.2262,-6.057408 16.279199,-14.41458 8.938034,-7.43029 16.968458,-14.016228 17.845385,-14.635419 0.945582,-0.667667 2.333168,-1.125802 3.409797,-1.125802 2.021769,0 3.108058,0.709509 10.221405,6.676105 l 4.503206,3.777237 0.250178,-5.101581 0.250178,-5.101582 h 5.754096 5.754097 l 0.14099,10.257302 0.140985,10.257301 5.212078,4.253028 c 3.026355,2.469498 5.222878,4.632529 5.237839,5.157991 0.03543,1.244587 -2.946207,4.849133 -4.011155,4.849133 -0.477015,0 -8.151071,-6.075663 -17.053458,-13.501472 -8.902387,-7.42581 -16.298737,-13.501472 -16.436335,-13.501472 -0.137598,0 -7.533949,6.075662 -16.436335,13.501472 -8.902387,7.425809 -16.576443,13.501472 -17.053458,13.501472 -0.477016,0 -1.580466,-0.887438 -2.452112,-1.972085 z"
     id="path8619"
     inkscape:connector-curvature="0" />
</svg>
