<?xml version="1.0" encoding="UTF-8" standalone="no"?>
<!-- Generator: Adobe Illustrator 22.0.1, SVG Export Plug-In . SVG Version: 6.00 Build 0)  -->

<svg
   xmlns:dc="http://purl.org/dc/elements/1.1/"
   xmlns:cc="http://creativecommons.org/ns#"
   xmlns:rdf="http://www.w3.org/1999/02/22-rdf-syntax-ns#"
   xmlns:svg="http://www.w3.org/2000/svg"
   xmlns="http://www.w3.org/2000/svg"
   xmlns:sodipodi="http://sodipodi.sourceforge.net/DTD/sodipodi-0.dtd"
   xmlns:inkscape="http://www.inkscape.org/namespaces/inkscape"
   version="1.1"
   id="Ebene_1"
   x="0px"
   y="0px"
   viewBox="1329.832 0 453.5 453.5"
   enable-background="new 1329.832 0 35 35"
   xml:space="preserve"
   inkscape:version="0.91 r13725"
   sodipodi:docname="Hilfen-fuer-Menschen-mit-Sehbehinderung.svg"
   width="453.5"
   height="453.5"><metadata
     id="metadata86"><rdf:RDF><cc:Work
         rdf:about=""><dc:format>image/svg+xml</dc:format><dc:type
           rdf:resource="http://purl.org/dc/dcmitype/StillImage" /><dc:title /></cc:Work></rdf:RDF></metadata><defs
     id="defs84" /><sodipodi:namedview
     pagecolor="#ffffff"
     bordercolor="#666666"
     borderopacity="1"
     objecttolerance="10"
     gridtolerance="10"
     guidetolerance="10"
     inkscape:pageopacity="0"
     inkscape:pageshadow="2"
     inkscape:window-width="1920"
     inkscape:window-height="1056"
     id="namedview82"
     showgrid="false"
     inkscape:zoom="1.4174744"
     inkscape:cx="421.88279"
     inkscape:cy="228.45547"
     inkscape:window-x="0"
     inkscape:window-y="24"
     inkscape:window-maximized="1"
     inkscape:current-layer="Ebene_1" /><rect
     x="1329.832"
     y="0"
     class="st2"
     width="453.5"
     height="453.5"
     id="rect53-3"
     style="fill:#232856" /><rect
     style="opacity:1;fill:none;fill-opacity:1;fill-rule:nonzero;stroke:#ffffff;stroke-width:2.21167636;stroke-linejoin:round;stroke-miterlimit:4;stroke-dasharray:none;stroke-dashoffset:0;stroke-opacity:1"
     id="rect3443"
     width="441.78833"
     height="441.78833"
     x="1334.9379"
     y="6.6058197" /><path
     style="fill:#ffffff"
     inkscape:connector-curvature="0"
     id="path44"
     d="m 1517.7181,71.760515 c 15.5828,-6.750333 33.6894,0.416536 40.4395,15.999881 6.7501,15.583344 -0.4165,33.690414 -15.9994,40.440744 -15.5829,6.75033 -33.6894,-0.41654 -40.4395,-15.99988 -6.7379,-15.583349 0.4165,-33.690412 15.9994,-40.440745 z" /><path
     style="fill:#ffffff"
     inkscape:connector-curvature="0"
     id="path50"
     d="m 1529.9565,131.72944 c -3.9447,0 -7.9017,-0.74731 -11.6872,-2.24194 -7.8772,-3.12402 -14.076,-9.12704 -17.4449,-16.89421 -3.369,-7.77942 -3.5037,-16.404166 -0.3921,-24.293847 3.124,-7.889681 9.1146,-14.076466 16.906,-17.445507 7.7792,-3.369041 16.4037,-3.503802 24.2931,-0.392033 7.8895,3.124019 14.0761,9.114787 17.445,16.894208 6.9584,16.061139 -0.4533,34.780749 -16.5139,41.739359 -4.055,1.76415 -8.3305,2.63397 -12.606,2.63397 z m -0.012,-61.537061 c -4.0183,0 -8.0242,0.820821 -11.822,2.462463 -15.0561,6.517563 -22.0022,24.08558 -15.4848,39.142128 3.1606,7.30163 8.9675,12.92487 16.3669,15.85287 7.3872,2.928 15.4849,2.79324 22.774,-0.36753 15.0561,-6.52981 22.0145,-24.08558 15.4849,-39.142131 -3.1607,-7.30163 -8.9675,-12.924866 -16.3669,-15.852869 -3.5527,-1.39662 -7.2524,-2.094931 -10.9521,-2.094931 z" /><polygon
     points="1341.281,30.889 1342.89,31.412 1348.161,21.234 1348.161,17.251 1346.551,14.757 1346.954,14.797 1350.735,20.309 1351.419,20.188 1358.218,30.608 1358.621,30.608 1348.241,12.101 1347.557,11.168 1347.131,10.79 1346.793,10.565 1346.39,10.372 1345.988,10.251 1345.626,10.154 1345.272,10.082 1344.862,10.009 1344.202,9.961 1344.218,22.039 "
     id="polygon56"
     style="fill:#ffffff"
     transform="matrix(12.250695,0,0,12.251058,-14959.21,14.511321)" /><path
     d="m 1492.3714,399.94185 -20.5812,-6.68907 0.1593,-0.46554 35.9558,-108.36061 -0.1961,-148.40932 8.6123,0.62481 5.0718,0.89432 4.349,0.89433 4.4592,1.18835 4.9371,1.48238 4.9982,2.38896 4.202,2.79324 5.3536,4.75341 8.3795,11.43024 127.6032,227.50214 -6.0396,0 -0.147,-0.22052 -83.121,-127.3865 -8.3672,1.48238 -0.1838,-0.25727 -46.1973,-67.33181 -3.6875,-0.36754 19.2336,29.81908 0,49.05323 -64.7939,125.18131 z m -19.3316,-7.31388 18.8415,6.12553 64.3162,-124.21347 0,-48.52645 -20.1891,-31.30145 6.1743,0.61255 0.1225,0.19602 46.1484,67.25831 8.3917,-1.48238 0.1838,0.26952 83.1454,127.43551 3.8223,0 -126.7457,-225.98301 -8.3183,-11.34448 -5.182,-4.59415 -4.0917,-2.71974 -4.8636,-2.3277 -4.8512,-1.44562 -4.4225,-1.1761 -4.3123,-0.88208 -5.0105,-0.88208 -7.5097,-0.55129 0.196,147.51498 0,0.0735 -35.821,107.94407 z"
     id="path60"
     inkscape:connector-curvature="0"
     style="fill:#ffffff" /><path
     d="m 1501.4981,142.06934 c 0,49.87405 0,77.86772 0,83.78498 l -11.3318,-14.78703 -8.2815,-8.67374 c 0,0 -7.5955,-8.0857 -5.0228,-15.96313 2.5604,-8.18371 6.4071,-16.26941 6.4071,-16.26941 l 7.7915,-14.78703 10.4375,-13.30464 z"
     id="path66"
     inkscape:connector-curvature="0"
     style="fill:#ffffff" /><path
     d="m 1501.9882,227.3122 -12.214,-15.93863 -8.2447,-8.637 c -0.3185,-0.34302 -7.7669,-8.39197 -5.1453,-16.46542 2.5482,-8.12245 6.3949,-16.2449 6.4316,-16.31841 l 7.7915,-14.79927 11.3809,-14.50526 0,86.66399 z m -0.9801,-83.82174 -9.5678,12.1898 -7.7424,14.71352 c 0,0.0613 -3.8467,8.1347 -6.3704,16.18365 -2.4379,7.52215 4.839,15.41183 4.9126,15.48534 l 8.2814,8.67375 10.4866,13.67218 0,-80.91824 z"
     id="path70"
     inkscape:connector-curvature="0"
     style="fill:#ffffff" /><polygon
     points="1350.172,31.412 1346.793,24.855 1348.281,21.918 1352.063,30.286 "
     id="polygon76"
     style="fill:#ffffff"
     transform="matrix(12.250695,0,0,12.251058,-14959.21,14.511321)" /><path
     d="m 1581.1399,400.03986 -0.245,-0.46554 -41.5176,-80.56295 0.1225,-0.22052 18.6946,-36.90019 0.4287,0.93108 46.5159,102.92114 -23.9868,14.29698 z m -40.6478,-81.02849 41.0398,79.64412 22.3331,-13.30465 -45.7196,-101.18148 -17.6533,34.84201 z"
     id="path80"
     inkscape:connector-curvature="0"
     style="fill:#ffffff" /></svg>