<?xml version="1.0" encoding="UTF-8" standalone="no"?>
<!-- Generator: Adobe Illustrator 22.0.1, SVG Export Plug-In . SVG Version: 6.00 Build 0)  -->

<svg
   xmlns:dc="http://purl.org/dc/elements/1.1/"
   xmlns:cc="http://creativecommons.org/ns#"
   xmlns:rdf="http://www.w3.org/1999/02/22-rdf-syntax-ns#"
   xmlns:svg="http://www.w3.org/2000/svg"
   xmlns="http://www.w3.org/2000/svg"
   xmlns:sodipodi="http://sodipodi.sourceforge.net/DTD/sodipodi-0.dtd"
   xmlns:inkscape="http://www.inkscape.org/namespaces/inkscape"
   version="1.1"
   id="Ebene_1"
   x="0px"
   y="0px"
   viewBox="1440 0 453.5 453.5"
   enable-background="new 1440 0 612 792"
   xml:space="preserve"
   inkscape:version="0.91 r13725"
   sodipodi:docname="Persoenliche-Hilfestellungen-vor-Ort.svg"
   width="453.5"
   height="453.5"><metadata
     id="metadata72"><rdf:RDF><cc:Work
         rdf:about=""><dc:format>image/svg+xml</dc:format><dc:type
           rdf:resource="http://purl.org/dc/dcmitype/StillImage" /><dc:title /></cc:Work></rdf:RDF></metadata><defs
     id="defs70" /><sodipodi:namedview
     pagecolor="#ffffff"
     bordercolor="#666666"
     borderopacity="1"
     objecttolerance="10"
     gridtolerance="10"
     guidetolerance="10"
     inkscape:pageopacity="0"
     inkscape:pageshadow="2"
     inkscape:window-width="1920"
     inkscape:window-height="1056"
     id="namedview68"
     showgrid="false"
     inkscape:zoom="1.0022547"
     inkscape:cx="146.36442"
     inkscape:cy="76.885448"
     inkscape:window-x="0"
     inkscape:window-y="24"
     inkscape:window-maximized="1"
     inkscape:current-layer="Ebene_1" /><polygon
     style="fill:#232856"
     id="polygon8"
     points="1529,563 1529,143 1949,143 1949,563 "
     transform="matrix(1.0797619,0,0,1.0797619,-210.95595,-154.40596)" /><g
     id="mitte_1_"
     transform="matrix(0.98571429,0,0,0.98571429,-46.157138,-120.45714)"><g
       id="g26"><ellipse
         cx="1739"
         cy="241"
         rx="31.299999"
         ry="33.5"
         id="ellipse28"
         style="fill:#ffffff" /><ellipse
         stroke-miterlimit="3.8637"
         cx="1739"
         cy="241"
         rx="31.299999"
         ry="33.5"
         id="ellipse30"
         style="fill:none;stroke:#ffffff;stroke-width:3.2572999;stroke-linejoin:round;stroke-miterlimit:3.86369991" /></g><g
       id="g32"><path
         d="m 1679.7,336.3 c 11.899,-17 40.3,-54.1 61.3,-54.1 17.5,0 50.899,35.5 64,55.3 l -26,34.5 c -12.5,-18.4 -21,-39.4 -37.5,-39.4 -16.801,0.301 -26.3,21 -36.601,36.801 L 1679.7,336.3 Z"
         id="path34"
         inkscape:connector-curvature="0"
         style="fill:#ffffff" /><path
         stroke-miterlimit="3.8637"
         d="m 1679.7,336.3 c 11.899,-17 40.3,-54.1 61.3,-54.1 17.5,0 50.899,35.5 64,55.3 l -26,34.5 c -12.5,-18.4 -21,-39.4 -37.5,-39.4 -16.801,0.301 -26.3,21 -36.601,36.801 L 1679.7,336.3 Z"
         id="path36"
         inkscape:connector-curvature="0"
         style="fill:none;stroke:#ffffff;stroke-width:0.81440002;stroke-linejoin:round;stroke-miterlimit:3.86369991" /></g></g><g
     id="hilfestellung_1_"
     transform="matrix(0.98571429,0,0,0.98571429,-46.157138,-120.45714)"><g
       id="g39"><path
         d="m 1553.3,413.3 c 0.5,-47.3 56.5,-107 85.1,-110.2 32.4,5.2 64.4,46.101 81.601,106 0,26.9 -14.2,57.101 -38.2,61 -15.9,-4.3 -11.4,-27.399 9.1,-56 C 1671.2,364.4 1651.1,347.2 1635,349.7 c -9.601,0.2 -26.601,21 -51.2,62.3 19.8,27.2 22.7,45.9 17.7,53.9 -11.2,10.6 -47,-24.1 -48.2,-52.6 z"
         id="path41"
         inkscape:connector-curvature="0"
         style="fill:#232856" /><path
         stroke-miterlimit="3.8637"
         d="m 1553.3,413.3 c 0.5,-47.3 56.5,-107 85.1,-110.2 32.4,5.2 64.4,46.101 81.601,106 0,26.9 -14.2,57.101 -38.2,61 -15.9,-4.3 -11.4,-27.399 9.1,-56 C 1671.2,364.4 1651.1,347.2 1635,349.7 c -9.601,0.2 -26.601,21 -51.2,62.3 19.8,27.2 22.7,45.9 17.7,53.9 -11.2,10.6 -47,-24.1 -48.2,-52.6 z"
         id="path43"
         inkscape:connector-curvature="0"
         style="fill:none;stroke:#ffffff;stroke-width:4.88600016;stroke-linejoin:round;stroke-miterlimit:3.86369991" /></g><g
       id="g45"><path
         d="M 1759.699,414.2 C 1761,384 1817.8,304 1845.6,303.1 c 24.9,1.2 66.9,52.9 81.6,106 1.101,25.4 -15.399,52.101 -38.199,61 -15.2,0.101 -11.4,-27.399 9.1,-56 -19.7,-49.699 -39.8,-66.899 -55.9,-64.399 -9.6,0.2 -26.6,21 -51.199,62.3 19.8,27.2 20.5,41.2 17.699,53.9 C 1797.5,476.5 1756.5,434.3 1759.699,414.2 Z"
         id="path47"
         inkscape:connector-curvature="0"
         style="fill:#232856" /><path
         stroke-miterlimit="3.8637"
         d="M 1759.699,414.2 C 1761,384 1817.8,304 1845.6,303.1 c 24.9,1.2 66.9,52.9 81.6,106 1.101,25.4 -15.399,52.101 -38.199,61 -15.2,0.101 -11.4,-27.399 9.1,-56 -19.7,-49.699 -39.8,-66.899 -55.9,-64.399 -9.6,0.2 -26.6,21 -51.199,62.3 19.8,27.2 20.5,41.2 17.699,53.9 C 1797.5,476.5 1756.5,434.3 1759.699,414.2 Z"
         id="path49"
         inkscape:connector-curvature="0"
         style="fill:none;stroke:#ffffff;stroke-width:4.88600016;stroke-linejoin:round;stroke-miterlimit:3.86369991" /></g></g><g
     id="unterarme_mitte_1_"
     transform="matrix(0.98571429,0,0,0.98571429,-46.157138,-120.45714)"><g
       id="g52"><path
         d="m 1660.8,367.5 c -7.9,12.1 -12.1,25.1 -12.6,39.1 8.1,22.301 26.399,40.801 55.6,49.7 12.2,-0.8 29.2,-7.6 14.6,-28.6 l -31.899,-26.5 C 1673.8,392.8 1665.3,381.5 1660.8,367.5 Z"
         id="path54"
         inkscape:connector-curvature="0"
         style="fill:#ffffff" /><path
         stroke-miterlimit="3.8637"
         d="m 1660.8,367.5 c -7.9,12.1 -12.1,25.1 -12.6,39.1 8.1,22.301 26.399,40.801 55.6,49.7 12.2,-0.8 29.2,-7.6 14.6,-28.6 l -31.899,-26.5 C 1673.8,392.8 1665.3,381.5 1660.8,367.5 Z"
         id="path56"
         inkscape:connector-curvature="0"
         style="fill:none;stroke:#ffffff;stroke-width:0.81440002;stroke-linejoin:round;stroke-miterlimit:3.86369991" /></g><g
       id="g58"><path
         d="m 1822.4,369.2 c 7.7,12.2 13.601,32.6 12,39.399 -8.5,22.101 -42.9,49.201 -56.4,48.601 -17,-2.2 -20.601,-17.2 -14.101,-28.9 l 32.3,-25.899 C 1809,394.2 1817.699,383.1 1822.4,369.2 Z"
         id="path60"
         inkscape:connector-curvature="0"
         style="fill:#ffffff" /><path
         stroke-miterlimit="3.8637"
         d="m 1822.4,369.2 c 7.7,12.2 13.601,32.6 12,39.399 -8.5,22.101 -42.9,49.201 -56.4,48.601 -17,-2.2 -20.601,-17.2 -14.101,-28.9 l 32.3,-25.899 C 1809,394.2 1817.699,383.1 1822.4,369.2 Z"
         id="path62"
         inkscape:connector-curvature="0"
         style="fill:none;stroke:#ffffff;stroke-width:0.81440002;stroke-linejoin:round;stroke-miterlimit:3.86369991" /></g></g><path
     stroke-miterlimit="3.8637"
     d="m 1568.3442,104.38428 c 15.1889,0 27.5016,13.15141 27.5016,29.37429 0,16.22289 -12.3127,29.37429 -27.5016,29.37429 -15.1878,0 -27.5005,-13.15239 -27.5005,-29.37429 -9e-4,-16.22288 12.3117,-29.37429 27.5005,-29.37429 z"
     id="path64"
     inkscape:connector-curvature="0"
     style="fill:none;stroke:#ffffff;stroke-width:13.65224934;stroke-linejoin:round;stroke-miterlimit:3.86369991" /><path
     stroke-miterlimit="3.8637"
     d="m 1769.5286,104.38428 c 15.1879,0 27.5005,13.15141 27.5005,29.37429 0,16.22289 -12.3126,29.37429 -27.5005,29.37429 -15.1889,0 -27.5015,-13.15239 -27.5015,-29.37429 0,-16.22288 12.3126,-29.37429 27.5015,-29.37429 z"
     id="path66"
     inkscape:connector-curvature="0"
     style="fill:none;stroke:#ffffff;stroke-width:13.65224934;stroke-linejoin:round;stroke-miterlimit:3.86369991" /><rect
     style="opacity:1;fill:none;fill-opacity:1;fill-rule:nonzero;stroke:#ffffff;stroke-width:2.21167636;stroke-linejoin:round;stroke-miterlimit:4;stroke-dasharray:none;stroke-dashoffset:0;stroke-opacity:1"
     id="rect3443"
     width="441.78833"
     height="441.78833"
     x="1445.1058"
     y="6.6058316" /></svg>