<?xml version="1.0" encoding="UTF-8" standalone="no"?>
<!-- Created with Inkscape (http://www.inkscape.org/) -->

<svg
   xmlns:dc="http://purl.org/dc/elements/1.1/"
   xmlns:cc="http://creativecommons.org/ns#"
   xmlns:rdf="http://www.w3.org/1999/02/22-rdf-syntax-ns#"
   xmlns:svg="http://www.w3.org/2000/svg"
   xmlns="http://www.w3.org/2000/svg"
   xmlns:sodipodi="http://sodipodi.sourceforge.net/DTD/sodipodi-0.dtd"
   xmlns:inkscape="http://www.inkscape.org/namespaces/inkscape"
   version="1.1"
   id="svg2"
   width="100"
   height="100"
   viewBox="0 0 100 100"
   sodipodi:docname="question.svg"
   inkscape:version="0.92.1 r">
  <metadata
     id="metadata8">
    <rdf:RDF>
      <cc:Work
         rdf:about="">
        <dc:format>image/svg+xml</dc:format>
        <dc:type
           rdf:resource="http://purl.org/dc/dcmitype/StillImage" />
        <dc:title></dc:title>
      </cc:Work>
    </rdf:RDF>
  </metadata>
  <defs
     id="defs6" />
  <sodipodi:namedview
     pagecolor="#ffffff"
     bordercolor="#666666"
     borderopacity="1"
     objecttolerance="10"
     gridtolerance="10"
     guidetolerance="10"
     inkscape:pageopacity="0"
     inkscape:pageshadow="2"
     inkscape:window-width="1920"
     inkscape:window-height="1011"
     id="namedview4"
     showgrid="false"
     inkscape:zoom="5.6190476"
     inkscape:cx="56.883102"
     inkscape:cy="47.574196"
     inkscape:window-x="0"
     inkscape:window-y="27"
     inkscape:window-maximized="1"
     inkscape:current-layer="svg2" />
  <path
     style="display:inline;fill:#231f20;fill-opacity:1;stroke-width:0.52246296"
     d="M 41.645179,86.350445 C 36.534497,85.401485 32.649632,83.821735 28.214088,80.888785 16.778544,73.327167 10.41732,60.744891 11.291574,47.416647 c 0.647718,-9.874638 3.907303,-17.177291 10.750907,-24.085938 4.941957,-4.988924 9.182545,-7.646312 15.597157,-9.774042 3.497615,-1.16016 4.899935,-1.32849 11.058791,-1.327463 6.225952,0.001 7.5435,0.163442 11.232953,1.38459 6.002906,1.986863 10.379239,4.732795 15.151425,9.506765 6.524147,6.526582 9.599337,12.702843 10.794555,21.679946 1.478125,11.101962 -1.972888,21.799399 -9.749629,30.221857 -8.780475,9.509541 -21.598387,13.720423 -34.482554,11.328083 z m 13.061574,-18.03528 v -6.008324 h -6.008324 -6.008324 l -0.149945,5.450543 c -0.08247,2.997793 -0.0281,5.768059 0.12082,6.156139 0.210006,0.547269 1.591894,0.672435 6.158268,0.557787 l 5.887505,-0.147821 z m 0.32502,-11.158476 c 0.523198,-1.960892 1.721623,-3.258446 4.906626,-5.312478 5.801867,-3.741668 7.919227,-7.387007 7.42925,-12.790526 C 66.231204,26.52078 49.303304,20.154183 37.824163,27.942357 c -2.880595,1.954377 -7.014407,7.080691 -6.573044,8.151189 0.349895,0.848649 7.293741,6.098472 8.066338,6.098472 0.345729,0 1.566815,-1.06587 2.713525,-2.368602 1.146709,-1.302731 2.751655,-2.713381 3.566547,-3.134778 3.326845,-1.720378 8.443057,-0.210396 9.175537,2.70804 0.532281,2.120778 -0.726052,3.840965 -4.25694,5.819391 -3.806598,2.132911 -5.776427,3.93602 -7.090175,6.490084 -0.971521,1.888739 -1.363048,6.142092 -0.632623,6.872518 0.20045,0.200449 2.946477,0.29841 6.102283,0.21769 l 5.737829,-0.14676 z"
     id="path3682"
     inkscape:connector-curvature="0" />
  <g
     id="g3725"
     transform="translate(0.17326744,0.89006261)"
     style="display:none">
    <path
       id="path3711"
       d="m 77.741,10.79 c -0.001,0 -0.001,0 -0.002,0 v 0 H 4.36 v 0 C 2.969,10.791 1.841,11.919 1.841,13.311 V 86.69 c 0,1.391 1.128,2.52 2.519,2.521 v 0 h 10e-4 c 0,0 0,0 0.001,0 0.001,0 0,0 0.001,0 h 73.376 v 0 c 10e-4,0 10e-4,0 0.002,0 1.393,0 2.521,-1.129 2.521,-2.521 V 13.311 c 0,-1.393 -1.128,-2.521 -2.521,-2.521 z M 11.862,20.809 H 70.243 V 79.19 H 11.862 Z"
       inkscape:connector-curvature="0"
       style="fill:#231f20" />
    <path
       id="path3713"
       d="m 97.524,63.966 h -2.882 v -7.737 c 0,-0.33 -0.266,-0.596 -0.595,-0.596 h -5.333 c -0.329,0 -0.595,0.266 -0.595,0.596 v 7.736 h -2.883 c -0.223,10e-4 -0.427,0.126 -0.529,0.324 -0.103,0.197 -0.085,0.437 0.045,0.618 l 6.164,8.616 c 0.111,0.156 0.292,0.248 0.483,0.248 0.001,0 0.001,0 0.001,0 0.193,0 0.373,-0.094 0.484,-0.25 l 6.125,-8.615 c 0.129,-0.182 0.146,-0.421 0.043,-0.619 -0.1,-0.197 -0.305,-0.322 -0.528,-0.321 z"
       inkscape:connector-curvature="0"
       style="fill:#231f20" />
    <path
       id="path3715"
       d="m 85.276,36.035 h 2.882 v 7.737 c 0,0.329 0.267,0.595 0.596,0.596 l 5.333,-0.001 c 0.329,0 0.596,-0.266 0.595,-0.595 v -7.737 h 2.883 c 0.223,0 0.427,-0.125 0.529,-0.323 0.102,-0.198 0.085,-0.438 -0.045,-0.618 l -6.164,-8.615 c -0.112,-0.157 -0.292,-0.25 -0.483,-0.25 -0.001,0 -0.001,0 -0.001,0 -0.193,0.002 -0.373,0.094 -0.485,0.252 l -6.124,8.614 c -0.129,0.181 -0.146,0.42 -0.044,0.618 0.1,0.197 0.305,0.322 0.528,0.322 z"
       inkscape:connector-curvature="0"
       style="fill:#231f20" />
    <circle
       id="circle3717"
       r="4.9549999"
       cy="31.993"
       cx="27.997999"
       style="fill:#231f20" />
    <path
       id="path3719"
       d="M 37.38,38.28 V 38.256 H 19.628 v 0.017 c -1.283,0 -2.323,1.036 -2.332,2.316 h -0.002 v 14.04 h 0.023 c -0.001,0.535 0.202,1.07 0.61,1.478 0.813,0.814 2.133,0.814 2.947,0 0.407,-0.408 0.61,-0.943 0.609,-1.478 h 0.005 V 44.93 44.827 h 0.006 c 0.015,-0.354 0.302,-0.638 0.66,-0.638 0.358,0 0.646,0.283 0.661,0.638 h 0.006 v 0.103 6.254 19.344 c 0.002,1.345 1.091,2.434 2.437,2.434 1.345,0 2.437,-1.091 2.437,-2.437 V 57.584 h 0.018 c 0,-0.373 0.302,-0.675 0.675,-0.675 0.373,0 0.675,0.302 0.675,0.675 h 0.017 v 12.941 c 0,1.346 1.092,2.437 2.437,2.437 1.346,0 2.437,-1.091 2.437,-2.437 V 57.584 51.185 44.931 44.828 c 0,-0.369 0.298,-0.667 0.666,-0.667 0.367,0 0.665,0.298 0.665,0.667 v 0.103 9.699 h 0.023 c -10e-4,0.535 0.202,1.07 0.61,1.478 0.814,0.814 2.133,0.814 2.947,0 0.408,-0.408 0.611,-0.943 0.61,-1.478 h 0.004 V 40.59 C 39.477,39.383 38.556,38.401 37.38,38.28 Z"
       inkscape:connector-curvature="0"
       style="fill:#231f20" />
    <circle
       id="circle3721"
       r="4.9549999"
       cy="31.993"
       cx="53.331001"
       style="display:inline;fill:#231f20" />
    <path
       id="path3723"
       d="M 62.713,38.28 V 38.256 H 44.961 v 0.017 c -1.283,0 -2.323,1.036 -2.332,2.316 h -0.002 v 14.04 h 0.023 c -10e-4,0.535 0.202,1.07 0.61,1.478 0.813,0.814 2.133,0.814 2.947,0 0.407,-0.408 0.61,-0.943 0.609,-1.478 h 0.005 V 44.93 44.827 h 0.006 c 0.015,-0.354 0.302,-0.638 0.66,-0.638 0.358,0 0.646,0.283 0.661,0.638 h 0.006 v 0.103 6.254 19.344 c 0.002,1.345 1.091,2.434 2.437,2.434 1.345,0 2.437,-1.091 2.437,-2.437 V 57.584 h 0.018 c 0,-0.373 0.302,-0.675 0.675,-0.675 0.373,0 0.675,0.302 0.675,0.675 h 0.017 v 12.941 c 0,1.346 1.092,2.437 2.437,2.437 1.346,0 2.437,-1.091 2.437,-2.437 V 57.584 51.185 44.931 44.828 c 0,-0.369 0.298,-0.667 0.666,-0.667 0.367,0 0.665,0.298 0.665,0.667 v 0.103 9.699 h 0.023 c -10e-4,0.535 0.202,1.07 0.61,1.478 0.814,0.814 2.133,0.814 2.947,0 0.408,-0.408 0.611,-0.943 0.61,-1.478 h 0.004 V 40.59 c -0.003,-1.207 -0.923,-2.189 -2.099,-2.31 z"
       inkscape:connector-curvature="0"
       style="fill:#231f20" />
  </g>
</svg>
