<?xml version="1.0" encoding="UTF-8" standalone="no"?>
<!-- Created with Inkscape (http://www.inkscape.org/) -->

<svg
   xmlns:dc="http://purl.org/dc/elements/1.1/"
   xmlns:cc="http://creativecommons.org/ns#"
   xmlns:rdf="http://www.w3.org/1999/02/22-rdf-syntax-ns#"
   xmlns:svg="http://www.w3.org/2000/svg"
   xmlns="http://www.w3.org/2000/svg"
   xmlns:sodipodi="http://sodipodi.sourceforge.net/DTD/sodipodi-0.dtd"
   xmlns:inkscape="http://www.inkscape.org/namespaces/inkscape"
   version="1.1"
   id="svg2"
   width="100"
   height="100"
   viewBox="0 0 100 100"
   sodipodi:docname="toilet.svg"
   inkscape:version="0.92.1 r">
  <metadata
     id="metadata8">
    <rdf:RDF>
      <cc:Work
         rdf:about="">
        <dc:format>image/svg+xml</dc:format>
        <dc:type
           rdf:resource="http://purl.org/dc/dcmitype/StillImage" />
        <dc:title></dc:title>
      </cc:Work>
    </rdf:RDF>
  </metadata>
  <defs
     id="defs6" />
  <sodipodi:namedview
     pagecolor="#ffffff"
     bordercolor="#666666"
     borderopacity="1"
     objecttolerance="10"
     gridtolerance="10"
     guidetolerance="10"
     inkscape:pageopacity="0"
     inkscape:pageshadow="2"
     inkscape:window-width="1920"
     inkscape:window-height="1011"
     id="namedview4"
     showgrid="false"
     inkscape:zoom="3.9732667"
     inkscape:cx="37.000218"
     inkscape:cy="47.574196"
     inkscape:window-x="0"
     inkscape:window-y="27"
     inkscape:window-maximized="1"
     inkscape:current-layer="svg2" />
  <g
     id="g8663"
     transform="translate(-0.10526392,0.27544015)">
    <g
       id="g8655">
      <circle
         id="circle8651"
         r="8.2720003"
         cy="19.721001"
         cx="22.336"
         style="fill:#231f20" />
      <path
         id="path8653"
         d="m 37.999,30.217 v -0.04 H 8.363 v 0.027 c -2.142,0 -3.878,1.729 -3.894,3.867 H 4.466 V 57.51 h 0.039 c -0.002,0.893 0.337,1.786 1.018,2.467 1.358,1.359 3.56,1.359 4.919,0 0.68,-0.681 1.019,-1.574 1.017,-2.467 h 0.008 V 41.32 41.148 h 0.009 c 0.025,-0.592 0.505,-1.064 1.101,-1.064 0.598,0 1.078,0.473 1.103,1.064 h 0.009 v 0.172 10.44 32.293 c 0.003,2.245 1.822,4.063 4.068,4.063 2.246,0 4.068,-1.821 4.068,-4.068 V 62.444 h 0.03 c 0,-0.623 0.504,-1.128 1.126,-1.128 0.622,0 1.127,0.505 1.127,1.128 h 0.029 v 21.604 c 0,2.247 1.823,4.068 4.069,4.068 2.247,0 4.068,-1.821 4.068,-4.068 V 62.444 51.76 41.32 41.148 c 0,-0.615 0.497,-1.112 1.112,-1.112 0.613,0 1.11,0.497 1.11,1.112 v 0.172 16.191 h 0.038 c -0.002,0.893 0.337,1.786 1.018,2.467 1.359,1.359 3.561,1.359 4.92,0 0.681,-0.681 1.02,-1.574 1.018,-2.467 h 0.007 V 34.072 c 0.002,-2.015 -1.535,-3.654 -3.498,-3.855 z"
         inkscape:connector-curvature="0"
         style="fill:#231f20" />
    </g>
    <g
       id="g8661">
      <circle
         id="circle8657"
         r="8.3199997"
         cy="19.768"
         cx="72.296997"
         style="fill:#231f20" />
      <path
         id="path8659"
         d="m 95.534,54.161 -5.55,-20.712 c -0.003,-0.016 -0.009,-0.032 -0.013,-0.048 l -0.098,-0.365 -0.014,0.004 c -0.506,-1.579 -1.968,-2.729 -3.715,-2.729 -0.014,0 -0.026,0.004 -0.04,0.004 v -0.072 h -26.12 v 0.068 c -1.747,0 -3.209,1.151 -3.715,2.729 L 56.255,33.036 56.157,33.4 c -0.004,0.017 -0.01,0.033 -0.013,0.05 l -5.55,20.711 0.052,0.014 c -0.025,0.171 -0.052,0.342 -0.052,0.52 0,1.952 1.583,3.536 3.536,3.536 1.495,0 2.767,-0.932 3.283,-2.244 l 0.025,0.007 4.071,-15.193 v 0.057 h 0.032 c 0.111,-0.5 0.536,-0.882 1.07,-0.882 0.534,0 0.959,0.382 1.07,0.882 h 0.033 v 0.164 c 0.002,0.025 0.015,0.047 0.015,0.072 0,0.025 -0.013,0.047 -0.015,0.072 v 0.155 l -6.518,24.326 c -0.105,0.214 -0.169,0.449 -0.187,0.698 l -0.014,0.051 0.008,0.002 c -10e-4,0.028 -0.008,0.054 -0.008,0.082 0,1.048 0.85,1.897 1.898,1.897 h 4.82 v 16.08 c 0,2.259 1.831,4.09 4.091,4.09 2.259,0 4.091,-1.832 4.091,-4.09 v -16.08 h 2.326 v 16.08 c 0,2.259 1.832,4.09 4.091,4.09 2.26,0 4.091,-1.832 4.091,-4.09 v -16.08 h 4.835 c 1.048,0 1.898,-0.849 1.898,-1.897 0,-0.028 -0.007,-0.055 -0.008,-0.082 l 0.008,-0.002 -0.014,-0.051 C 89.104,66.096 89.04,65.861 88.935,65.647 l -6.499,-24.253 0.021,-0.006 c -0.027,-0.096 -0.06,-0.191 -0.06,-0.296 0,-0.616 0.5,-1.118 1.118,-1.118 0.525,0 0.946,0.371 1.065,0.86 l 0.043,-0.011 4.065,15.169 0.024,-0.007 c 0.517,1.312 1.788,2.244 3.283,2.244 1.953,0 3.536,-1.584 3.536,-3.536 0,-0.178 -0.027,-0.349 -0.052,-0.52 z"
         inkscape:connector-curvature="0"
         style="fill:#231f20" />
    </g>
  </g>
</svg>
