<?xml version="1.0" encoding="UTF-8" standalone="no"?>
<!-- Generator: Adobe Illustrator 22.0.1, SVG Export Plug-In . SVG Version: 6.00 Build 0)  -->

<svg
   xmlns:dc="http://purl.org/dc/elements/1.1/"
   xmlns:cc="http://creativecommons.org/ns#"
   xmlns:rdf="http://www.w3.org/1999/02/22-rdf-syntax-ns#"
   xmlns:svg="http://www.w3.org/2000/svg"
   xmlns="http://www.w3.org/2000/svg"
   xmlns:sodipodi="http://sodipodi.sourceforge.net/DTD/sodipodi-0.dtd"
   xmlns:inkscape="http://www.inkscape.org/namespaces/inkscape"
   version="1.1"
   id="svg2"
   inkscape:version="0.91 r13725"
   sodipodi:docname="Aufzug-vorhanden-rollstuhlgerecht.svg"
   x="0px"
   y="0px"
   viewBox="0 0 453.5 453.5"
   style="enable-background:new 0 0 453.5 453.5;"
   xml:space="preserve"><metadata
     id="metadata116"><rdf:RDF><cc:Work
         rdf:about=""><dc:format>image/svg+xml</dc:format><dc:type
           rdf:resource="http://purl.org/dc/dcmitype/StillImage" /></cc:Work></rdf:RDF></metadata><defs
     id="defs114" /><style
     type="text/css"
     id="style3">
	.st0{fill:none;stroke:#232856;stroke-width:4;stroke-miterlimit:3.8637;}
	.st1{fill:#232856;}
	.st2{fill:#FFFFFF;}
	.st3{fill:none;stroke:#FFFFFF;stroke-width:4;stroke-linejoin:bevel;stroke-miterlimit:3.8637;}
	.st4{fill:none;stroke:#FFFFFF;stroke-width:4.7168;stroke-miterlimit:3.8637;}
	.st5{fill:none;stroke:#232856;stroke-width:4.7168;stroke-miterlimit:3.8637;}
	.st6{fill:none;stroke:#FFFFFF;stroke-width:3.1445;stroke-miterlimit:3.8637;}
</style><sodipodi:namedview
     bordercolor="#666666"
     borderopacity="1"
     gridtolerance="10"
     guidetolerance="10"
     id="namedview4"
     inkscape:current-layer="svg2"
     inkscape:cx="242.03832"
     inkscape:cy="200.07333"
     inkscape:pageopacity="0"
     inkscape:pageshadow="2"
     inkscape:window-height="1056"
     inkscape:window-maximized="1"
     inkscape:window-width="1920"
     inkscape:window-x="0"
     inkscape:window-y="24"
     inkscape:zoom="1.6704233"
     objecttolerance="10"
     pagecolor="#ffffff"
     showgrid="false" /><rect
     x="0"
     y="0"
     class="st2"
     width="453.5"
     height="453.5"
     id="rect53-3"
     style="fill:#232856" /><rect
     style="opacity:1;fill:none;fill-opacity:1;fill-rule:nonzero;stroke:#ffffff;stroke-width:2.2116766;stroke-linejoin:round;stroke-miterlimit:4;stroke-dasharray:none;stroke-dashoffset:0;stroke-opacity:1"
     id="rect3443"
     width="441.78833"
     height="441.78833"
     x="5.1058383"
     y="6.6058307" /><path
     class="st2"
     d="M 221.76643,227.94891"
     id="path37"
     inkscape:connector-curvature="0"
     style="fill:#ffffff" /><path
     class="st2"
     d="M 221.76643,227.94891"
     id="path39"
     inkscape:connector-curvature="0"
     style="fill:#ffffff" /><g
     id="g41"
     transform="matrix(1.2998429,0,0,1.2484921,-73.687853,-33.36048)"><path
       class="st2"
       d="M 228,208.3"
       id="path43"
       inkscape:connector-curvature="0"
       style="fill:#ffffff" /></g><path
     class="st2"
     d="M 219.81666,226.45072"
     id="path45"
     inkscape:connector-curvature="0"
     style="fill:#ffffff" /><path
     class="st2"
     d="M 219.81666,226.45072"
     id="path47"
     inkscape:connector-curvature="0"
     style="fill:#ffffff" /><path
     class="st2"
     d="M 220.72656,225.20222"
     id="path49"
     inkscape:connector-curvature="0"
     style="fill:#ffffff" /><path
     class="st2"
     d="M 220.72656,225.20222"
     id="path51"
     inkscape:connector-curvature="0"
     style="fill:#ffffff" /><path
     class="st2"
     d="M 220.85654,281.75893"
     id="path53"
     inkscape:connector-curvature="0"
     style="fill:#ffffff" /><g
     id="g59"
     transform="matrix(1.258558,0,0,1.2088382,-62.688061,-30.362453)"><g
       id="rollifahrer_2_"><g
         id="g62"><g
           id="g64"><g
             id="g66"><path
               class="st1"
               d="M 116,140.8"
               id="path68"
               inkscape:connector-curvature="0"
               style="fill:#232856" /></g><g
             id="g70"><path
               class="st1"
               d="M 116,140.8"
               id="path72"
               inkscape:connector-curvature="0"
               style="fill:#232856" /></g></g><g
           id="g74"><g
             id="g76"><g
               id="g78"><path
                 class="st2"
                 d="M 234.6,303.9"
                 id="path80"
                 inkscape:connector-curvature="0"
                 style="fill:#ffffff" /><g
                 id="g82"><path
                   class="st4"
                   d="M 234.6,303.9"
                   id="path84"
                   inkscape:connector-curvature="0"
                   style="fill:none;stroke:#ffffff;stroke-width:4.71680021;stroke-miterlimit:3.86369991" /></g></g><g
               id="g86"><g
                 id="g88"><g
                   id="g90"><g
                     id="g92"><path
                       class="st1"
                       d="M 234.6,303.9"
                       id="path94"
                       inkscape:connector-curvature="0"
                       style="fill:#232856" /></g><path
                     class="st5"
                     d="M 234.6,303.9"
                     id="path96"
                     inkscape:connector-curvature="0"
                     style="fill:none;stroke:#232856;stroke-width:4.71680021;stroke-miterlimit:3.86369991" /></g><g
                   id="g98"><g
                     id="g100"><g
                       id="g102"><path
                         class="st2"
                         d="M 220.2,204.9"
                         id="path104"
                         inkscape:connector-curvature="0"
                         style="fill:#ffffff" /></g><g
                       id="g106"><path
                         class="st6"
                         d="M 220.2,204.9"
                         id="path108"
                         inkscape:connector-curvature="0"
                         style="fill:none;stroke:#ffffff;stroke-width:3.14450002;stroke-miterlimit:3.86369991" /></g></g><path
                     class="st2"
                     d="m 317.1,321.6 -21,8.5 -26.4,-56.5 -57.6,1 -1.3,-10.1 42.6,-0.7 -0.2,-14.8 -0.1,0 0,0 -44.6,0.8 -6.3,-48 -13.3,-1.4 0,0.1 -0.1,0 9.1,88.5 59.3,-1.1 5.4,11 c 1.4,8.6 0.5,17.7 -3,26.3 -10.2,25.4 -39.1,37.6 -64.5,27.4 -25.4,-10.2 -37.6,-39.1 -27.4,-64.5 4.4,-11 12.4,-19.5 22.1,-24.8 l -1.4,-13.9 c -14.2,6.3 -26.1,17.8 -32.6,33.3 -13.2,31.9 1.9,68.6 33.8,81.8 31.9,13.2 68.6,-1.9 81.8,-33.8 1.1,-2.7 2,-5.4 2.7,-8.2 l 13.9,28.1 35.5,-16.4 -6.4,-12.6 z"
                     id="path110"
                     inkscape:connector-curvature="0"
                     style="fill:#ffffff" /></g></g></g></g></g></g></g><circle
       class="st2"
       cx="197.60001"
       cy="178.7"
       r="18.200001"
       id="circle112"
       style="fill:#ffffff" /></g><polygon
     class="st0"
     points="155.2,96.9 155.2,109.2 172.9,93.6 172.9,135.5 184.8,135.5 184.8,93.7 202.5,109.2 202.5,96.9 178.6,73.2 "
     id="polygon131"
     transform="matrix(1.340995,0,0,1.2880182,-92.067961,-64.403162)"
     style="fill:#ffffff;stroke:none;stroke-width:4;stroke-miterlimit:3.86369991" /><polygon
     class="st0"
     points="276.4,72.9 264.5,72.9 264.5,114.7 246.9,99.3 246.9,111.5 270.8,135.2 294.1,111.5 294.1,99.2 276.4,114.8 "
     id="polygon133"
     transform="matrix(1.340995,0,0,1.2880182,-70.093761,-64.403162)"
     style="fill:#ffffff;stroke:none;stroke-width:4;stroke-miterlimit:3.86369991" /><rect
     x="391.38672"
     y="22.681366"
     class="st2"
     width="23.333311"
     height="409.81863"
     id="rect51-6"
     style="fill:#ffffff" /><rect
     x="36.900002"
     y="22.681366"
     class="st2"
     width="23.333311"
     height="409.81863"
     id="rect51-6-7"
     style="fill:#ffffff" /><rect
     style="opacity:1;fill:none;fill-opacity:1;fill-rule:nonzero;stroke:#ffffff;stroke-width:7;stroke-linejoin:round;stroke-miterlimit:3.86369991;stroke-dasharray:none;stroke-dashoffset:0;stroke-opacity:1"
     id="rect4200"
     width="298.09241"
     height="287.22604"
     x="75.337914"
     y="143.28601"
     ry="26.486679" /></svg>