<?xml version="1.0" encoding="UTF-8" standalone="no"?>
<!-- Generator: Adobe Illustrator 22.0.1, SVG Export Plug-In . SVG Version: 6.00 Build 0)  -->

<svg
   xmlns:dc="http://purl.org/dc/elements/1.1/"
   xmlns:cc="http://creativecommons.org/ns#"
   xmlns:rdf="http://www.w3.org/1999/02/22-rdf-syntax-ns#"
   xmlns:svg="http://www.w3.org/2000/svg"
   xmlns="http://www.w3.org/2000/svg"
   xmlns:sodipodi="http://sodipodi.sourceforge.net/DTD/sodipodi-0.dtd"
   xmlns:inkscape="http://www.inkscape.org/namespaces/inkscape"
   version="1.1"
   id="svg2"
   inkscape:version="0.91 r13725"
   sodipodi:docname="Aufzug-vorhanden.svg"
   x="0px"
   y="0px"
   viewBox="0 0 453.5 453.5"
   style="enable-background:new 0 0 453.5 453.5;"
   xml:space="preserve"><metadata
     id="metadata137"><rdf:RDF><cc:Work
         rdf:about=""><dc:format>image/svg+xml</dc:format><dc:type
           rdf:resource="http://purl.org/dc/dcmitype/StillImage" /><dc:title /></cc:Work></rdf:RDF></metadata><defs
     id="defs135" /><style
     type="text/css"
     id="style3">
	.st0{fill:#FFFFFF;}
	.st1{fill:none;stroke:#FFFFFF;stroke-width:4;stroke-linejoin:bevel;stroke-miterlimit:3.8637;}
	.st2{fill:#232856;}
	.st3{fill:none;stroke:#232856;stroke-width:4;stroke-miterlimit:3.8637;}
</style><sodipodi:namedview
     bordercolor="#666666"
     borderopacity="1"
     gridtolerance="10"
     guidetolerance="10"
     id="namedview4"
     inkscape:current-layer="svg2"
     inkscape:cx="405.54291"
     inkscape:cy="100.04941"
     inkscape:pageopacity="0"
     inkscape:pageshadow="2"
     inkscape:window-height="1056"
     inkscape:window-maximized="1"
     inkscape:window-width="1920"
     inkscape:window-x="0"
     inkscape:window-y="24"
     inkscape:zoom="0.95474577"
     objecttolerance="10"
     pagecolor="#ffffff"
     showgrid="false" /><rect
     x="0"
     y="5.9174887e-14"
     class="st2"
     width="453.5"
     height="453.5"
     id="rect53-3"
     style="fill:#232856" /><g
     id="Ebene-4_1_"
     transform="matrix(1.1049637,0,0,1.0613115,-19.55419,6.4125359)"><g
       id="g7"><g
         id="g9"><path
           class="st0"
           d="M 227.3,227.3"
           id="path11"
           inkscape:connector-curvature="0"
           style="fill:#ffffff" /></g><g
         id="g13"><path
           class="st0"
           d="M 227.3,227.3"
           id="path15"
           inkscape:connector-curvature="0"
           style="fill:#ffffff" /></g></g></g><g
     id="Ebene-5_1_"
     transform="matrix(1.1049637,0,0,1.0613115,-19.55419,6.4125359)"><g
       id="g18"><g
         id="g20"><path
           class="st0"
           d="M 228,226.3"
           id="path22"
           inkscape:connector-curvature="0"
           style="fill:#ffffff" /></g></g></g><g
     id="g24"
     transform="matrix(1.1049637,0,0,1.0613115,-31.55419,6.4125359)"><g
       id="rollifahrer_1_"><g
         id="g27"><g
           id="g29"><g
             id="g31"><path
               class="st0"
               d="M 74.9,229.6"
               id="path33"
               inkscape:connector-curvature="0"
               style="fill:#ffffff" /></g><g
             id="g35"><path
               class="st1"
               d="M 74.9,229.6"
               id="path37"
               inkscape:connector-curvature="0"
               style="fill:none;stroke:#ffffff;stroke-width:4;stroke-linejoin:bevel;stroke-miterlimit:3.86369991" /></g></g><g
           id="g39"><g
             id="g41"><path
               class="st2"
               d="M 368.3,229.6"
               id="path43"
               inkscape:connector-curvature="0"
               style="fill:#232856" /></g><g
             id="g45"><path
               class="st2"
               d="M 368.3,229.6"
               id="path47"
               inkscape:connector-curvature="0"
               style="fill:#232856" /></g></g></g></g></g><rect
     x="57.845898"
     y="5.3761616"
     class="st2"
     width="335.51694"
     height="427.10687"
     id="rect53"
     style="fill:#232856" /><path
     style="fill:#ffffff"
     inkscape:connector-curvature="0"
     id="path57"
     d="M 223.53782,256.88205"
     class="st0" /><path
     style="fill:#ffffff"
     inkscape:connector-curvature="0"
     id="path59"
     d="M 223.53782,256.88205"
     class="st0" /><path
     style="fill:#ffffff"
     inkscape:connector-curvature="0"
     id="path61"
     d="M 224.2008,255.92687"
     class="st0" /><path
     style="fill:#ffffff"
     inkscape:connector-curvature="0"
     id="path63"
     d="M 224.2008,255.92687"
     class="st0" /><path
     class="st0"
     d="m 126.45562,214.42959 c 0.1105,-12.73574 10.93914,-23.03046 24.3092,-22.92433 13.25956,0.10613 23.97771,10.50699 23.86722,23.34885 -0.1105,12.73574 -10.93914,23.03046 -24.3092,22.92433 -13.25957,-0.10613 -23.97772,-10.61311 -23.86722,-23.34885 z"
     id="path71"
     inkscape:connector-curvature="0"
     style="fill:#ffffff" /><path
     class="st0"
     d="M 150.65432,214.64185"
     id="path73"
     inkscape:connector-curvature="0"
     style="fill:#ffffff" /><path
     class="st0"
     d="m 123.47222,250.30192 c 0,-3.82072 3.20439,-6.89853 7.18226,-6.89853 l 38.67373,0 c 3.97787,0 7.18226,3.07781 7.18226,6.89853 l 0,63.3603 c 0,3.82072 -3.20439,6.89852 -7.18226,6.89852 l -38.67373,0 c -3.97787,0 -7.18226,-3.0778 -7.18226,-6.89852 l 0,-63.3603 0,0 z"
     id="path79"
     inkscape:connector-curvature="0"
     style="fill:#ffffff" /><path
     class="st0"
     d="M 150.10184,281.929"
     id="path81"
     inkscape:connector-curvature="0"
     style="fill:#ffffff" /><path
     class="st0"
     d="m 106.78727,245.41989 c 0,-1.27358 0.99446,-2.22876 2.32042,-2.22876 l 8.61872,0 c 1.32595,0 2.32042,0.95518 2.32042,2.22876 l 0,76.09603 c 0,1.27357 -0.99447,2.22875 -2.32042,2.22875 l -8.61872,0 c -1.32596,0 -2.32042,-0.95518 -2.32042,-2.22875 l 0,-76.09603 0,0 z"
     id="path87"
     inkscape:connector-curvature="0"
     style="fill:#ffffff" /><path
     class="st0"
     d="M 113.52754,283.41484"
     id="path89"
     inkscape:connector-curvature="0"
     style="fill:#ffffff" /><path
     class="st0"
     d="m 180.37785,245.84441 c 0,-1.27357 0.99446,-2.22875 2.32042,-2.22875 l 8.61872,0 c 1.32595,0 2.32042,0.95518 2.32042,2.22875 l 0,76.09603 c 0,1.27358 -0.99447,2.22876 -2.32042,2.22876 l -8.61872,0 c -1.32596,0 -2.32042,-0.95518 -2.32042,-2.22876 l 0,-76.09603 0,0 z"
     id="path95"
     inkscape:connector-curvature="0"
     style="fill:#ffffff" /><path
     class="st0"
     d="M 187.11813,283.94549"
     id="path97"
     inkscape:connector-curvature="0"
     style="fill:#ffffff" /><path
     class="st0"
     d="m 131.75944,326.92861 c 0,-1.27357 0.99447,-2.22876 2.32043,-2.22876 l 9.61318,0 c 1.32596,0 2.32043,0.95519 2.32043,2.22876 l 0,76.09603 c 0,1.27358 -0.99447,2.22876 -2.32043,2.22876 l -9.50268,0 c -1.32596,0 -2.32043,-0.95518 -2.32043,-2.22876 l -0.1105,-76.09603 0,0 z"
     id="path103"
     inkscape:connector-curvature="0"
     style="fill:#ffffff" /><path
     class="st0"
     d="M 138.94171,364.92356"
     id="path105"
     inkscape:connector-curvature="0"
     style="fill:#ffffff" /><path
     class="st0"
     d="m 154.74269,326.92861 c 0,-1.27357 0.99447,-2.22876 2.32042,-2.22876 l 9.61319,0 c 1.32595,0 2.32042,0.95519 2.32042,2.22876 l 0,76.09603 c 0,1.27358 -0.99447,2.22876 -2.32042,2.22876 l -9.61319,0 c -1.32595,0 -2.32042,-0.95518 -2.32042,-2.22876 l 0,-76.09603 0,0 z"
     id="path111"
     inkscape:connector-curvature="0"
     style="fill:#ffffff" /><path
     class="st0"
     d="M 161.92495,364.92356"
     id="path113"
     inkscape:connector-curvature="0"
     style="fill:#ffffff" /><path
     style="fill:#ffffff"
     inkscape:connector-curvature="0"
     id="path117"
     d="m 264.86347,360.57218 9.61318,0 c 1.32596,0 2.32042,0.95518 2.32042,2.22876 l 0,40.5421 c 0,1.27357 -0.99446,2.22875 -2.32042,2.22875 l -9.61318,0 c -1.32596,0 -2.32043,-0.95518 -2.32043,-2.22875 l 0,-40.43597 c -0.11049,-1.27358 0.99447,-2.33489 2.32043,-2.33489 z"
     class="st0" /><path
     style="fill:#ffffff"
     inkscape:connector-curvature="0"
     id="path121"
     d="m 287.84671,360.57218 9.61319,0 c 1.32595,0 2.32042,0.95518 2.32042,2.22876 l 0,40.5421 c 0,1.27357 -0.99447,2.22875 -2.32042,2.22875 l -9.61319,0 c -1.32596,0 -2.32042,-0.95518 -2.32042,-2.22875 l 0,-40.43597 c -0.1105,-1.27358 0.99446,-2.33489 2.32042,-2.33489 z"
     class="st0" /><path
     style="fill:#ffffff"
     inkscape:connector-curvature="0"
     id="path125"
     d="m 283.64785,237.99071 c 13.25956,0 24.08821,-10.40086 24.08821,-23.24273 0,-12.73573 -10.82865,-23.13659 -24.19871,-23.13659 -13.25956,0 -24.08821,10.40086 -24.08821,23.24272 0.1105,12.84187 10.82865,23.1366 24.19871,23.1366 z"
     class="st0" /><path
     style="fill:#ffffff"
     inkscape:connector-curvature="0"
     id="path127"
     d="m 344.31036,297.63641 -45.7455,-52.74718 c -0.44199,-0.74292 -3.0939,-1.27357 -4.64085,-1.06131 l -25.74565,0 c -0.221,0 -0.44199,0 -0.66298,0 -1.43645,-0.3184 -4.30936,0.31839 -4.86184,0.95518 l -45.7455,52.74718 c -0.66298,0.95518 -0.44198,2.22875 0.44199,2.86554 l 8.17673,5.83721 c 0.99447,0.74292 2.32042,0.53066 2.9834,-0.31839 l 22.65176,-28.12475 -24.86169,73.33662 c 0,3.82072 3.2044,6.89853 7.18227,6.89853 l 94.03241,0 c 3.97787,0 7.18226,-3.07781 7.18226,-6.89853 l -23.97771,-72.27531 21.87828,27.16957 c 0.77348,0.95518 2.09943,1.06131 2.9834,0.3184 l 8.17673,-5.83722 c 1.10497,-0.63678 1.21546,-2.01649 0.55249,-2.86554 z"
     class="st0" /><polygon
     class="st0"
     points="172.9,135.5 184.8,135.5 184.8,93.7 202.5,109.2 202.5,96.9 178.6,73.2 155.2,96.9 155.2,109.2 172.9,93.6 "
     id="polygon131"
     transform="matrix(1.340995,0,0,1.2880182,-87.994432,-64.42014)"
     style="fill:#ffffff" /><polygon
     class="st0"
     points="246.9,111.5 270.8,135.2 294.1,111.5 294.1,99.2 276.4,114.8 276.4,72.9 264.5,72.9 264.5,114.7 246.9,99.3 "
     id="polygon133"
     transform="matrix(1.340995,0,0,1.2880182,-76.020238,-64.42014)"
     style="fill:#ffffff" /><rect
     x="391.46024"
     y="22.664387"
     class="st2"
     width="23.333311"
     height="409.81863"
     id="rect51-6"
     style="fill:#ffffff" /><rect
     x="36.973526"
     y="22.664387"
     class="st2"
     width="23.333311"
     height="409.81863"
     id="rect51-6-7"
     style="fill:#ffffff" /><rect
     style="opacity:1;fill:none;fill-opacity:1;fill-rule:nonzero;stroke:#ffffff;stroke-width:2.212;stroke-linejoin:round;stroke-miterlimit:4;stroke-dasharray:none;stroke-dashoffset:0;stroke-opacity:1"
     id="rect3443"
     width="441.78833"
     height="441.78833"
     x="5.1058383"
     y="6.6058192" /><rect
     style="opacity:1;fill:none;fill-opacity:1;fill-rule:nonzero;stroke:#ffffff;stroke-width:7;stroke-linejoin:round;stroke-miterlimit:3.86369991;stroke-dasharray:none;stroke-dashoffset:0;stroke-opacity:1"
     id="rect4200"
     width="298.09241"
     height="287.22604"
     x="75.411438"
     y="143.26903"
     ry="26.486679" /></svg>