<?xml version="1.0" encoding="UTF-8" standalone="no"?>
<!-- Generator: Adobe Illustrator 22.0.1, SVG Export Plug-In . SVG Version: 6.00 Build 0)  -->

<svg
   xmlns:dc="http://purl.org/dc/elements/1.1/"
   xmlns:cc="http://creativecommons.org/ns#"
   xmlns:rdf="http://www.w3.org/1999/02/22-rdf-syntax-ns#"
   xmlns:svg="http://www.w3.org/2000/svg"
   xmlns="http://www.w3.org/2000/svg"
   xmlns:sodipodi="http://sodipodi.sourceforge.net/DTD/sodipodi-0.dtd"
   xmlns:inkscape="http://www.inkscape.org/namespaces/inkscape"
   version="1.1"
   id="Ebene_1"
   x="0px"
   y="0px"
   viewBox="1283.936 0 453.5 453.5"
   enable-background="new 1283.936 0 612 792"
   xml:space="preserve"
   inkscape:version="0.91 r13725"
   sodipodi:docname="teilweise-rollstuhlgerecht.svg"
   width="453.5"
   height="453.5"><metadata
     id="metadata72"><rdf:RDF><cc:Work
         rdf:about=""><dc:format>image/svg+xml</dc:format><dc:type
           rdf:resource="http://purl.org/dc/dcmitype/StillImage" /><dc:title /></cc:Work></rdf:RDF></metadata><defs
     id="defs70" /><sodipodi:namedview
     pagecolor="#ffffff"
     bordercolor="#666666"
     borderopacity="1"
     objecttolerance="10"
     gridtolerance="10"
     guidetolerance="10"
     inkscape:pageopacity="0"
     inkscape:pageshadow="2"
     inkscape:window-width="1920"
     inkscape:window-height="1056"
     id="namedview68"
     showgrid="false"
     inkscape:zoom="0.96779392"
     inkscape:cx="249.46667"
     inkscape:cy="179.21246"
     inkscape:window-x="0"
     inkscape:window-y="24"
     inkscape:window-maximized="1"
     inkscape:current-layer="Ebene_1" /><g
     id="Ebene-4"
     transform="matrix(1.0424196,0,0,1.0442179,-159.20341,-141.15912)"><g
       id="g4"><g
         id="g6"><polygon
           points="1391.936,142 1811.936,142 1811.936,562 1391.936,562 "
           id="polygon8"
           style="fill:#232856" /></g><g
         id="g10"><polygon
           stroke-miterlimit="3.8637"
           points="1391.936,142 1811.936,142 1811.936,562 1391.936,562 "
           id="polygon12"
           style="fill:none;stroke:#232856;stroke-width:15;stroke-miterlimit:3.86369991" /></g></g></g><g
     id="rollifahrer"
     transform="matrix(0.95170877,0,0,0.95173961,-12.639506,-107.51137)"><g
       id="g26"><g
         id="g28"><g
           id="g30"><circle
             cx="1467.734"
             cy="190.8"
             r="27.5"
             id="circle32"
             style="fill:#ffffff" /></g><g
           id="g34"><circle
             stroke-miterlimit="3.8637"
             cx="1467.734"
             cy="190.8"
             r="27.5"
             id="circle36"
             style="fill:none;stroke:#ffffff;stroke-width:4;stroke-miterlimit:3.86369991" /></g></g><g
         id="g38"><path
           d="m 1455.734,539.25 21.5,0 -0.299,-167.751 c 0,0 11.5,-18.498 11.799,-26.299 0.301,-7.8 -0.299,-63.999 -0.299,-63.999 l 69.799,35.8 8.301,-16 c 0,0 -49.301,-26.3 -58.301,-36.8 -9,-10.5 -23.5,-35.5 -23.5,-35.5 l -32.799,0 c 0,0 -8.5,16 -8.5,18.8 0,2.8 -0.5,90.3 0.5,99.001 1,8.699 11.5,23.498 11.5,23.498 l 0.299,169.25 z"
           id="path40"
           inkscape:connector-curvature="0"
           style="fill:#ffffff" /><path
           stroke-miterlimit="3.8637"
           d="m 1455.734,537.75 21.5,0 -0.299,-166.251 c 0,0 11.5,-18.498 11.799,-26.299 0.301,-7.8 -0.299,-63.999 -0.299,-63.999 l 69.799,35.8 8.301,-16 c 0,0 -49.301,-26.3 -58.301,-36.8 -9,-10.5 -23.5,-35.5 -23.5,-35.5 l -32.799,0 c 0,0 -8.5,16 -8.5,18.8 0,2.8 -0.5,90.3 0.5,99.001 1,8.699 11.5,23.498 11.5,23.498 l 0.299,167.75 z"
           id="path42"
           inkscape:connector-curvature="0"
           style="fill:none;stroke:#ffffff;stroke-width:4;stroke-miterlimit:3.86369991" /></g><g
         id="g44"><g
           id="g46"><g
             id="g48"><g
               id="g50"><g
                 id="g52"><g
                   id="g54"><polygon
                     points="1598.135,284 1578.035,282 1591.736,415.801 1683.737,414.201 1728.237,509 1781.635,484.4 1771.44,464.323 1740.237,478.1 1700.237,392.7 1613.036,394.2 1611.135,378.899 1675.635,377.799 1675.237,355.399 1607.635,356.6 "
                     id="polygon56"
                     style="fill:#ffffff" /><polygon
                     stroke-miterlimit="3.8637"
                     points="1598.135,284 1578.035,282 1591.736,415.801 1683.737,414.201 1728.237,509 1781.635,484.4 1771.44,464.323 1740.237,478.1 1700.237,392.7 1613.036,394.2 1611.135,378.899 1675.635,377.799 1675.237,355.399 1607.635,356.6 "
                     id="polygon58"
                     style="fill:none;stroke:#ffffff;stroke-width:0.78619999;stroke-miterlimit:3.86369991" /></g></g></g></g></g></g></g></g><ellipse
     cx="1498.8177"
     cy="127.87096"
     id="circle60"
     style="fill:#ffffff"
     rx="26.171991"
     ry="26.172838" /><g
     id="g62"
     transform="matrix(0.95170877,0,0,0.95173961,-12.639506,-107.51137)"><circle
       stroke-miterlimit="3.8637"
       cx="1588.151"
       cy="247.31799"
       r="27.5"
       id="circle64"
       style="fill:none;stroke:#ffffff;stroke-width:4;stroke-miterlimit:3.86369991" /></g><path
     d="m 1589.0035,339.53216 c -10.8485,26.85238 -36.773,43.18138 -64.0995,43.17948 -8.5939,0 -17.3315,-1.61605 -25.7761,-5.02804 -17.0992,-6.90868 -30.4841,-20.06173 -37.6904,-37.03696 -7.2055,-16.97617 -7.3702,-35.74162 -0.4616,-52.83962 6.0643,-15.01179 16.8434,-26.73057 29.9435,-34.15033 l -2.5496,-24.71192 c -22.1625,9.56403 -39.434,27.04083 -48.7026,49.38958 -9.4525,22.79131 -9.4639,47.89915 -0.032,70.69903 9.4315,22.79988 27.178,40.56219 49.9695,50.01582 11.4091,4.73205 23.3968,7.09807 35.3874,7.09807 11.9611,0 23.9249,-2.35555 35.3102,-7.06571 22.5013,-9.30896 40.0804,-26.72675 49.6241,-49.09073 l -15.9282,-34.19221 c -0.2379,7.93275 -1.8521,15.95498 -4.9946,23.73354 z"
     id="path66"
     inkscape:connector-curvature="0"
     style="fill:#ffffff" /><rect
     style="opacity:1;fill:none;fill-opacity:1;fill-rule:nonzero;stroke:#ffffff;stroke-width:2.21167636;stroke-linejoin:round;stroke-miterlimit:4;stroke-dasharray:none;stroke-dashoffset:0;stroke-opacity:1"
     id="rect3443"
     width="441.78833"
     height="441.78833"
     x="1289.0419"
     y="6.6058316" /></svg>