<?xml version="1.0" encoding="UTF-8" standalone="no"?>
<!-- Generator: Adobe Illustrator 22.0.1, SVG Export Plug-In . SVG Version: 6.00 Build 0)  -->

<svg
   xmlns:dc="http://purl.org/dc/elements/1.1/"
   xmlns:cc="http://creativecommons.org/ns#"
   xmlns:rdf="http://www.w3.org/1999/02/22-rdf-syntax-ns#"
   xmlns:svg="http://www.w3.org/2000/svg"
   xmlns="http://www.w3.org/2000/svg"
   xmlns:sodipodi="http://sodipodi.sourceforge.net/DTD/sodipodi-0.dtd"
   xmlns:inkscape="http://www.inkscape.org/namespaces/inkscape"
   version="1.1"
   id="Ebene_1"
   x="0px"
   y="0px"
   viewBox="2429.326 0 453.5 453.5"
   enable-background="new 2429.326 0 35 35"
   xml:space="preserve"
   inkscape:version="0.91 r13725"
   sodipodi:docname="vollstaendig-rollstuhlgerecht.svg"
   width="453.5"
   height="453.5"><metadata
     id="metadata56"><rdf:RDF><cc:Work
         rdf:about=""><dc:format>image/svg+xml</dc:format><dc:type
           rdf:resource="http://purl.org/dc/dcmitype/StillImage" /><dc:title /></cc:Work></rdf:RDF></metadata><defs
     id="defs54" /><sodipodi:namedview
     pagecolor="#ffffff"
     bordercolor="#666666"
     borderopacity="1"
     objecttolerance="10"
     gridtolerance="10"
     guidetolerance="10"
     inkscape:pageopacity="0"
     inkscape:pageshadow="2"
     inkscape:window-width="1920"
     inkscape:window-height="1056"
     id="namedview52"
     showgrid="false"
     inkscape:zoom="1.4174744"
     inkscape:cx="105.7139"
     inkscape:cy="242.12915"
     inkscape:window-x="0"
     inkscape:window-y="24"
     inkscape:window-maximized="1"
     inkscape:current-layer="Ebene_1" /><g
     id="g10"
     transform="matrix(13.425899,0,0,13.425899,-30194.669,-8.3106479)"><polygon
       points="2429.93,34.397 2429.93,0.619 2463.708,0.619 2463.708,34.397 "
       id="polygon12"
       style="fill:#232856" /></g><g
     id="g40"
     transform="matrix(11.833981,0,0,11.833981,-26298.284,20.310656)"><ellipse
       cx="2442.2749"
       cy="5.2919998"
       rx="2.6059999"
       ry="2.6140001"
       id="ellipse42"
       style="fill:#ffffff" /></g><polygon
     points="2459.903,27.585 2454.861,29.789 2450.856,20.854 2442.234,20.854 2441.165,8.283 2443.039,8.517 2443.819,15.32 2450.132,15.32 2450.148,17.427 2444.1,17.436 2444.261,18.875 2452.44,18.875 2456.043,26.925 2459.019,25.792 "
     id="polygon46"
     style="fill:#ffffff"
     transform="matrix(11.833981,0,0,11.833981,-26298.284,20.310656)" /><path
     d="m 2588.4163,200.37651 c -49.2057,15.79837 -96.1274,101.1687 -38.2593,164.74085 63.2882,69.4773 154.6583,29.97547 174.6459,-28.0702 0,-0.0947 -13.325,-31.21804 -13.325,-31.21804 -10.2719,79.76103 -108.9673,95.45289 -148.4692,41.20592 -40.2592,-55.3002 -3.136,-109.73651 27.4075,-123.34559 -0.1183,0 -1.9999,-23.40761 -1.9999,-23.31294 z"
     id="path50"
     inkscape:connector-curvature="0"
     style="fill:#ffffff" /><rect
     style="opacity:1;fill:none;fill-opacity:1;fill-rule:nonzero;stroke:#ffffff;stroke-width:2.21167636;stroke-linejoin:round;stroke-miterlimit:4;stroke-dasharray:none;stroke-dashoffset:0;stroke-opacity:1"
     id="rect3443"
     width="441.78833"
     height="441.78833"
     x="2434.4319"
     y="6.6058316" /></svg>