<?xml version="1.0" encoding="UTF-8" standalone="no"?>
<!-- Generator: Adobe Illustrator 22.0.1, SVG Export Plug-In . SVG Version: 6.00 Build 0)  -->

<svg
   xmlns:dc="http://purl.org/dc/elements/1.1/"
   xmlns:cc="http://creativecommons.org/ns#"
   xmlns:rdf="http://www.w3.org/1999/02/22-rdf-syntax-ns#"
   xmlns:svg="http://www.w3.org/2000/svg"
   xmlns="http://www.w3.org/2000/svg"
   xmlns:sodipodi="http://sodipodi.sourceforge.net/DTD/sodipodi-0.dtd"
   xmlns:inkscape="http://www.inkscape.org/namespaces/inkscape"
   version="1.1"
   id="svg2"
   inkscape:version="0.91 r13725"
   sodipodi:docname="Eingangsbereich.svg"
   x="0px"
   y="0px"
   viewBox="0 0 453.5 453.5"
   style="enable-background:new 0 0 453.5 453.5;"
   xml:space="preserve"><metadata
     id="metadata21"><rdf:RDF><cc:Work
         rdf:about=""><dc:format>image/svg+xml</dc:format><dc:type
           rdf:resource="http://purl.org/dc/dcmitype/StillImage" /><dc:title /></cc:Work></rdf:RDF></metadata><defs
     id="defs19" /><sodipodi:namedview
     pagecolor="#ffffff"
     bordercolor="#666666"
     borderopacity="1"
     objecttolerance="10"
     gridtolerance="10"
     guidetolerance="10"
     inkscape:pageopacity="0"
     inkscape:pageshadow="2"
     inkscape:window-width="1920"
     inkscape:window-height="1056"
     id="namedview17"
     showgrid="false"
     inkscape:zoom="1.4718286"
     inkscape:cx="37.322212"
     inkscape:cy="189.61782"
     inkscape:window-x="0"
     inkscape:window-y="24"
     inkscape:window-maximized="1"
     inkscape:current-layer="svg2"
     showguides="false" /><style
     type="text/css"
     id="style3">
	.st0{fill:none;stroke:#232856;stroke-width:4;stroke-miterlimit:10;}
	.st1{fill:#232856;}
</style><g
     id="g5"
     transform="matrix(1.089075,0,0,1.0948794,-21.236962,-24.524346)"><g
       id="g7"><polygon
         class="st0"
         points="433.9,24.4 433.9,434.6 21.5,434.6 21.5,24.4 "
         id="polygon9"
         style="fill:none;stroke:#232856;stroke-width:4;stroke-miterlimit:10" /></g></g><g
     id="g11"
     transform="matrix(2.0360558,0,0,1.7080621,-288.50957,-212.2895)"><path
       class="st1"
       d="m 261.1,261.7 0,119.7 42.5,-14.5 0,-111.5 -42.5,6.3 z m 10.9,63.9 c -2.3,0 -4.1,-1.8 -4.1,-4.1 0,-2.3 1.8,-4.1 4.1,-4.1 2.3,0 4.1,1.8 4.1,4.1 0,2.3 -1.8,4.1 -4.1,4.1 z"
       id="path13"
       inkscape:connector-curvature="0"
       style="fill:#232856" /></g><path
     class="st1"
     d="M 421.97893,31.054202 28.256081,30.77575 l 0,383.29089 150.643199,0 0,-196.02311 160.40202,0 0,196.02311 81.70823,0 z"
     id="path15"
     inkscape:connector-curvature="0"
     style="fill:#232856"
     sodipodi:nodetypes="ccccccccc" /></svg>