<?xml version="1.0" encoding="UTF-8" standalone="no"?>
<!-- Created with Inkscape (http://www.inkscape.org/) -->

<svg
   xmlns:dc="http://purl.org/dc/elements/1.1/"
   xmlns:cc="http://creativecommons.org/ns#"
   xmlns:rdf="http://www.w3.org/1999/02/22-rdf-syntax-ns#"
   xmlns:svg="http://www.w3.org/2000/svg"
   xmlns="http://www.w3.org/2000/svg"
   xmlns:sodipodi="http://sodipodi.sourceforge.net/DTD/sodipodi-0.dtd"
   xmlns:inkscape="http://www.inkscape.org/namespaces/inkscape"
   version="1.1"
   id="svg2"
   width="100"
   height="100"
   viewBox="0 0 100 100"
   sodipodi:docname="general-help.svg"
   inkscape:version="0.92.1 r">
  <metadata
     id="metadata8">
    <rdf:RDF>
      <cc:Work
         rdf:about="">
        <dc:format>image/svg+xml</dc:format>
        <dc:type
           rdf:resource="http://purl.org/dc/dcmitype/StillImage" />
        <dc:title></dc:title>
      </cc:Work>
    </rdf:RDF>
  </metadata>
  <defs
     id="defs6" />
  <sodipodi:namedview
     pagecolor="#ffffff"
     bordercolor="#666666"
     borderopacity="1"
     objecttolerance="10"
     gridtolerance="10"
     guidetolerance="10"
     inkscape:pageopacity="0"
     inkscape:pageshadow="2"
     inkscape:window-width="1920"
     inkscape:window-height="1011"
     id="namedview4"
     showgrid="false"
     inkscape:zoom="5.6568542"
     inkscape:cx="-4.1989768"
     inkscape:cy="52.573276"
     inkscape:window-x="0"
     inkscape:window-y="27"
     inkscape:window-maximized="1"
     inkscape:current-layer="svg2"
     inkscape:pagecheckerboard="false"
     showborder="false" />
  <g
     inkscape:groupmode="layer"
     id="layer3"
     inkscape:label="BGR"
     style="display:inline"
     sodipodi:insensitive="true">
    <rect
       style="opacity:1;fill:#384675;fill-opacity:1;fill-rule:nonzero;stroke:none;stroke-width:2;stroke-linecap:butt;stroke-linejoin:miter;stroke-miterlimit:4;stroke-dasharray:none;stroke-dashoffset:0;stroke-opacity:1"
       id="rect5053"
       width="100"
       height="100"
       x="0"
       y="0" />
  </g>
  <g
     inkscape:groupmode="layer"
     id="layer4"
     inkscape:label="Rahmen"
     style="display:inline"
     sodipodi:insensitive="true">
    <rect
       style="opacity:1;fill:none;fill-opacity:1;fill-rule:nonzero;stroke:#f7f7f7;stroke-width:1.88235283;stroke-linecap:butt;stroke-linejoin:miter;stroke-miterlimit:4;stroke-dasharray:none;stroke-dashoffset:0;stroke-opacity:1"
       id="rect5056"
       width="94.117645"
       height="94.117645"
       x="2.9411764"
       y="2.9411764"
       rx="9.4117641"
       ry="9.4117641" />
  </g>
  <path
     style="display:inline;fill:#ffffff;fill-opacity:1;stroke-width:0.31182075"
     d="M 42.882513,88.266128 C 31.020123,86.421419 20.806045,79.002654 15.294066,68.22788 9.122569,56.163906 10.020865,41.881293 17.680138,30.290295 c 1.899654,-2.874799 6.799022,-7.777196 9.726995,-9.733009 4.501023,-3.006575 9.07442,-4.945095 13.934645,-5.90646 3.722417,-0.736304 10.81591,-0.736304 14.538328,0 7.228867,1.42989 13.740054,4.943489 19.107388,10.310821 5.295892,5.295895 8.724563,11.589664 10.292297,18.892847 0.789048,3.675728 0.789048,11.291677 0,14.967397 C 82.85521,70.116658 75.497067,79.6421 65.185601,84.834717 58.567628,88.167366 50.363864,89.429545 42.882513,88.266128 Z M 54.357352,75.793855 c 0.7261,-0.7261 0.7261,-10.766728 0,-11.492828 -0.726101,-0.7261 -10.76672,-0.7261 -11.492821,0 -0.7261,0.7261 -0.7261,10.766728 0,11.492828 0.406699,0.406698 1.383618,0.490001 5.746407,0.490001 4.362796,0 5.339715,-0.0833 5.746414,-0.490001 z M 54.319802,60.24039 c 0.248833,-0.248841 0.53996,-0.919033 0.646947,-1.489314 0.298106,-1.589037 1.81347,-3.165221 5.172424,-5.380008 5.052149,-3.33123 6.798074,-5.978378 7.099278,-10.763854 0.25208,-4.005079 -1.360739,-7.664968 -4.834704,-10.971082 -3.409711,-3.24498 -7.214984,-4.890839 -11.92186,-5.156452 -7.78607,-0.439375 -14.751638,3.219969 -18.587097,9.764687 -0.611663,1.043726 -0.714508,1.473168 -0.464629,1.940074 0.50746,0.948196 7.028605,5.670053 7.830663,5.670053 0.492374,0 1.426418,-0.765236 2.995265,-2.453946 2.739653,-2.948978 3.719028,-3.470643 6.51571,-3.470643 1.656516,0 2.399673,0.16668 3.560828,0.798662 3.759225,2.046023 3.186571,5.749847 -1.227103,7.936687 -3.935609,1.949979 -7.047602,4.926658 -8.130725,7.777188 -0.750038,1.973955 -0.809134,5.061487 -0.110249,5.760372 0.696033,0.696034 10.763771,0.729049 11.455252,0.03755 z"
     id="path5046"
     inkscape:connector-curvature="0"
     inkscape:label="question" />
</svg>
