<?xml version="1.0" encoding="UTF-8" standalone="no"?>
<!-- Created with Inkscape (http://www.inkscape.org/) -->

<svg
   xmlns:dc="http://purl.org/dc/elements/1.1/"
   xmlns:cc="http://creativecommons.org/ns#"
   xmlns:rdf="http://www.w3.org/1999/02/22-rdf-syntax-ns#"
   xmlns:svg="http://www.w3.org/2000/svg"
   xmlns="http://www.w3.org/2000/svg"
   xmlns:sodipodi="http://sodipodi.sourceforge.net/DTD/sodipodi-0.dtd"
   xmlns:inkscape="http://www.inkscape.org/namespaces/inkscape"
   version="1.1"
   id="svg2"
   width="100"
   height="100"
   viewBox="0 0 100 100"
   sodipodi:docname="low-vision.svg"
   inkscape:version="0.92.1 r">
  <metadata
     id="metadata8">
    <rdf:RDF>
      <cc:Work
         rdf:about="">
        <dc:format>image/svg+xml</dc:format>
        <dc:type
           rdf:resource="http://purl.org/dc/dcmitype/StillImage" />
        <dc:title></dc:title>
      </cc:Work>
    </rdf:RDF>
  </metadata>
  <defs
     id="defs6" />
  <sodipodi:namedview
     pagecolor="#ffffff"
     bordercolor="#666666"
     borderopacity="1"
     objecttolerance="10"
     gridtolerance="10"
     guidetolerance="10"
     inkscape:pageopacity="0"
     inkscape:pageshadow="2"
     inkscape:window-width="1920"
     inkscape:window-height="1011"
     id="namedview4"
     showgrid="false"
     inkscape:zoom="5.6568542"
     inkscape:cx="-4.1989768"
     inkscape:cy="52.573276"
     inkscape:window-x="0"
     inkscape:window-y="27"
     inkscape:window-maximized="1"
     inkscape:current-layer="svg2"
     inkscape:pagecheckerboard="false"
     showborder="false" />
  <g
     inkscape:groupmode="layer"
     id="layer3"
     inkscape:label="BGR"
     style="display:inline"
     sodipodi:insensitive="true">
    <rect
       style="opacity:1;fill:#384675;fill-opacity:1;fill-rule:nonzero;stroke:none;stroke-width:2;stroke-linecap:butt;stroke-linejoin:miter;stroke-miterlimit:4;stroke-dasharray:none;stroke-dashoffset:0;stroke-opacity:1"
       id="rect5053"
       width="100"
       height="100"
       x="0"
       y="0" />
  </g>
  <g
     inkscape:groupmode="layer"
     id="layer4"
     inkscape:label="Rahmen"
     style="display:inline"
     sodipodi:insensitive="true">
    <rect
       style="opacity:1;fill:none;fill-opacity:1;fill-rule:nonzero;stroke:#f7f7f7;stroke-width:1.88235283;stroke-linecap:butt;stroke-linejoin:miter;stroke-miterlimit:4;stroke-dasharray:none;stroke-dashoffset:0;stroke-opacity:1"
       id="rect5056"
       width="94.117645"
       height="94.117645"
       x="2.9411764"
       y="2.9411764"
       rx="9.4117641"
       ry="9.4117641" />
  </g>
  <path
     style="display:inline;fill:#f7f7f7;fill-opacity:1;stroke-width:0.25069007"
     d="M 61.542366,81.888291 C 61.34561,81.578058 58.599433,76.52979 55.439737,70.669908 40.739086,43.406468 36.716753,36.075557 36.464641,36.086841 c -0.149506,0.007 -0.969962,0.373324 -1.823234,0.814744 l -1.55141,0.802578 8.760325,16.169504 c 11.184509,20.64398 10.475122,19.25819 10.010616,19.555865 -0.206815,0.132538 -1.294223,0.242704 -2.416456,0.244818 -1.592227,0.0028 -2.148678,-0.09253 -2.533265,-0.434868 -0.271068,-0.24129 -4.358858,-7.602175 -9.08397,-16.35753 -4.725126,-8.755348 -8.684837,-16.020999 -8.799371,-16.145879 -0.214851,-0.234276 -2.950998,1.719074 -3.155881,2.252999 -0.06174,0.160923 3.118438,6.250812 7.067096,13.533087 7.806757,14.397551 8.392867,15.507513 8.392867,15.894242 0,0.453229 -1.077132,0.282555 -3.640581,-0.57687 -2.492322,-0.835569 -2.493575,-0.836409 -3.269672,-2.193534 -0.427014,-0.746704 -3.277148,-5.982879 -6.333621,-11.635939 -3.056481,-5.65306 -5.671016,-10.447508 -5.810092,-10.65433 -0.289464,-0.430472 -0.543711,-0.171248 -2.274328,2.318884 l -1.001805,1.441468 0.966658,1.441468 c 0.531657,0.792806 2.413684,4.148921 4.182269,7.458031 1.768592,3.30911 3.257423,6.093374 3.308509,6.187258 0.0511,0.09388 -0.01309,0.236194 -0.142625,0.316253 -0.401205,0.247954 -4.041465,-2.691479 -6.545652,-5.285483 -3.890236,-4.02976 -6.483498,-7.800037 -6.70271,-9.744882 -0.175315,-1.555365 0.829612,-3.514413 3.544632,-6.910058 4.028122,-5.037935 9.065071,-9.1931 14.366514,-11.851469 l 2.304589,-1.155616 -1.07282,-1.947512 c -2.532663,-4.5976 -3.215485,-6.080662 -3.068772,-6.665218 0.107464,-0.428183 0.806379,-0.928431 2.628206,-1.881159 1.364993,-0.713832 2.718989,-1.29787 3.008873,-1.29787 0.63112,0 0.650475,0.02912 3.49839,5.26449 1.959755,3.602662 2.326401,4.132625 2.841461,4.107257 0.325255,-0.01603 1.945097,-0.168917 3.599652,-0.339766 8.817228,-0.910448 17.403254,1.397788 25.417393,6.83312 4.396035,2.981475 10.447787,9.372895 12.379647,13.074489 0.680932,1.304723 0.713972,3.430392 0.07232,4.652879 -0.64785,1.234289 -3.579905,5.075504 -5.395635,7.068691 -1.718577,1.886528 -5.23768,4.911851 -7.50295,6.450164 -0.827456,0.561911 -2.681896,1.644839 -4.120991,2.406509 l -2.616523,1.384845 2.098516,3.816729 c 1.154181,2.099202 2.099972,4.053063 2.10175,4.341925 0.0042,0.705334 -0.492345,1.111908 -3.005044,2.459766 -2.401819,1.288385 -3.089485,1.400427 -3.605147,0.58737 z m 2.038932,-16.613556 c 4.854647,-2.242982 10.798396,-7.30779 14.188601,-12.090463 l 1.466052,-2.068192 -1.466052,-2.068192 c -2.122288,-2.993978 -6.754104,-7.547527 -9.600745,-9.438514 -2.335214,-1.551256 -6.007939,-3.534699 -6.545175,-3.534699 -0.151634,0 0.247982,0.592256 0.888041,1.316126 1.311814,1.483587 3.171259,5.133079 3.672193,7.20734 0.47866,1.982036 0.419496,6.287436 -0.113694,8.272769 -0.803649,2.992409 -2.339204,5.687955 -4.478425,7.861511 l -1.939175,1.97029 0.929796,1.723134 c 0.511385,0.947723 0.965384,1.725045 1.008896,1.72739 0.04354,0.0021 0.938868,-0.392987 1.989687,-0.8785 z M 60.509747,49.82864 c 1.125355,-1.084041 0.166369,-5.602143 -1.738226,-8.189357 -1.987756,-2.700166 -4.723671,-4.36016 -7.937406,-4.815951 -2.45714,-0.348481 -3.56916,0.207823 -3.56916,1.785532 0,1.157807 0.755657,1.718528 2.683996,1.991612 3.975727,0.563038 6.598851,3.178777 7.159775,7.139643 0.245686,1.734846 0.540372,2.294496 1.386799,2.633709 0.653828,0.262024 1.3804,0.06538 2.014222,-0.545188 z"
     id="path5048"
     inkscape:connector-curvature="0"
     inkscape:label="low-vision" />
</svg>
