<?xml version="1.0" encoding="UTF-8" standalone="no"?>
<!-- Generator: Adobe Illustrator 22.0.1, SVG Export Plug-In . SVG Version: 6.00 Build 0)  -->

<svg
   xmlns:dc="http://purl.org/dc/elements/1.1/"
   xmlns:cc="http://creativecommons.org/ns#"
   xmlns:rdf="http://www.w3.org/1999/02/22-rdf-syntax-ns#"
   xmlns:svg="http://www.w3.org/2000/svg"
   xmlns="http://www.w3.org/2000/svg"
   xmlns:sodipodi="http://sodipodi.sourceforge.net/DTD/sodipodi-0.dtd"
   xmlns:inkscape="http://www.inkscape.org/namespaces/inkscape"
   version="1.1"
   id="svg2"
   inkscape:version="0.91 r13725"
   sodipodi:docname="parkplatz-vorhanden.svg"
   x="0px"
   y="0px"
   viewBox="0 0 453.5 453.5"
   style="enable-background:new 0 0 453.5 453.5;"
   xml:space="preserve"><metadata
     id="metadata33"><rdf:RDF><cc:Work
         rdf:about=""><dc:format>image/svg+xml</dc:format><dc:type
           rdf:resource="http://purl.org/dc/dcmitype/StillImage" /><dc:title /></cc:Work></rdf:RDF></metadata><defs
     id="defs31" /><style
     type="text/css"
     id="style3">
	.st0{fill:none;stroke:#232856;stroke-width:4;stroke-miterlimit:10;}
	.st1{fill:#232856;}
	.st2{fill:none;stroke:#232856;stroke-width:15;stroke-miterlimit:3.8637;}
</style><g
     id="g5"
     transform="matrix(1.0890727,0,0,1.0953597,-21.558573,-21.224)"><polygon
       class="st0"
       points="21.8,21.2 434.2,21.2 434.2,431.4 21.8,431.4 "
       id="polygon7"
       style="fill:none;stroke:#232856;stroke-width:4;stroke-miterlimit:10" /></g><sodipodi:namedview
     bordercolor="#666666"
     borderopacity="1"
     gridtolerance="10"
     guidetolerance="10"
     id="namedview4"
     inkscape:current-layer="svg2"
     inkscape:cx="232.63147"
     inkscape:cy="225.31669"
     inkscape:pageopacity="0"
     inkscape:pageshadow="2"
     inkscape:window-height="1056"
     inkscape:window-maximized="1"
     inkscape:window-width="1920"
     inkscape:window-x="0"
     inkscape:window-y="24"
     inkscape:zoom="1.1812287"
     objecttolerance="10"
     pagecolor="#ffffff"
     showgrid="false" /><g
     id="Ebene-4_1_"
     transform="matrix(0.99421086,0,0,0.99951465,1.3199231,1.3156445)"><g
       id="g11"><g
         id="g13"><path
           class="st1"
           d="M 227.3,227.3"
           id="path15"
           inkscape:connector-curvature="0"
           style="fill:#232856" /></g><g
         id="g17"><path
           class="st2"
           d="M 227.3,227.3"
           id="path19"
           inkscape:connector-curvature="0"
           style="fill:none;stroke:#232856;stroke-width:15;stroke-miterlimit:3.86369991" /></g></g></g><g
     id="Ebene-5_1_"
     transform="matrix(0.99421086,0,0,0.99951465,1.3199231,1.3156445)"><g
       id="g22"><g
         id="g24"><path
           class="st1"
           d="M 228,226.3"
           id="path26"
           inkscape:connector-curvature="0"
           style="fill:#232856" /></g></g></g><g
     id="Ebene-1_1_"
     transform="matrix(1.0418486,0,0,1.0474065,-9.6542756,-8.3242956)"><path
       class="st1"
       d="m 100,395.8 0,-340.4 133.4,0 c 23.5,0 41.5,1.2 53.7,3.4 17.4,3 32,8.5 43.7,16.6 11.7,8.1 21.1,19.4 28.3,34 7.3,14.6 10.9,30.6 10.9,48.2 0,30 -9.5,55.5 -28.7,76.5 -19.2,20.7 -53.7,31 -103.7,31 l -90.7,0 0,130.7 -46.9,0 z m 46.6,-172.2 91.5,0 c 30.2,0 51.8,-5.5 64.4,-16.8 12.6,-11.3 19,-27.1 19,-47.4 0,-14.8 -3.8,-27.5 -11.3,-37.9 -7.3,-10.7 -17.2,-17.6 -29.4,-20.9 -7.9,-2.2 -22.5,-3.2 -43.7,-3.2 l -90.5,0 0,126.2 z"
       id="path29"
       inkscape:connector-curvature="0"
       style="fill:#232856" /></g></svg>