<?xml version="1.0" encoding="UTF-8" standalone="no"?>
<!-- Generator: Adobe Illustrator 22.0.1, SVG Export Plug-In . SVG Version: 6.00 Build 0)  -->

<svg
   xmlns:dc="http://purl.org/dc/elements/1.1/"
   xmlns:cc="http://creativecommons.org/ns#"
   xmlns:rdf="http://www.w3.org/1999/02/22-rdf-syntax-ns#"
   xmlns:svg="http://www.w3.org/2000/svg"
   xmlns="http://www.w3.org/2000/svg"
   xmlns:sodipodi="http://sodipodi.sourceforge.net/DTD/sodipodi-0.dtd"
   xmlns:inkscape="http://www.inkscape.org/namespaces/inkscape"
   version="1.1"
   id="svg2"
   inkscape:version="0.91 r13725"
   sodipodi:docname="parkplatz-vorhanden-behindertengerecht.svg"
   x="0px"
   y="0px"
   viewBox="0 0 453.5 453.5"
   style="enable-background:new 0 0 453.5 453.5;"
   xml:space="preserve"><metadata
     id="metadata58"><rdf:RDF><cc:Work
         rdf:about=""><dc:format>image/svg+xml</dc:format><dc:type
           rdf:resource="http://purl.org/dc/dcmitype/StillImage" /><dc:title /></cc:Work></rdf:RDF></metadata><defs
     id="defs56" /><style
     type="text/css"
     id="style3">
	.st0{fill:none;stroke:#232856;stroke-width:4;stroke-miterlimit:10;}
	.st1{fill:#FFFFFF;}
	.st2{fill:#232856;}
</style><sodipodi:namedview
     bordercolor="#666666"
     borderopacity="1"
     gridtolerance="10"
     guidetolerance="10"
     id="namedview4"
     inkscape:current-layer="svg2"
     inkscape:cx="220.93996"
     inkscape:cy="170.98681"
     inkscape:pageopacity="0"
     inkscape:pageshadow="2"
     inkscape:window-height="1056"
     inkscape:window-maximized="1"
     inkscape:window-width="1920"
     inkscape:window-x="0"
     inkscape:window-y="24"
     inkscape:zoom="1.1812287"
     objecttolerance="10"
     pagecolor="#ffffff"
     showgrid="false" /><g
     id="g6"
     transform="matrix(1.0891017,0,0,1.0948794,-21.5597,-21.016361)"><polygon
       class="st0"
       points="21.8,431.4 21.8,21.2 434.2,21.2 434.2,431.4 "
       id="polygon8"
       style="fill:none;stroke:#232856;stroke-width:4;stroke-miterlimit:10" /></g><g
     id="g10"
     transform="matrix(0.99421086,0,0,0.99951465,1.3199231,1.3156445)"><g
       id="g12"><path
         class="st1"
         d="M 175.6,301.1"
         id="path14"
         inkscape:connector-curvature="0"
         style="fill:#ffffff" /><path
         class="st1"
         d="M 175.6,301.1"
         id="path16"
         inkscape:connector-curvature="0"
         style="fill:#ffffff" /></g><g
       id="g18"><g
         id="g20"><g
           id="g22"><path
             class="st1"
             d="M 175.6,301.1"
             id="path24"
             inkscape:connector-curvature="0"
             style="fill:#ffffff" /><path
             class="st1"
             d="M 175.6,301.1"
             id="path26"
             inkscape:connector-curvature="0"
             style="fill:#ffffff" /></g><g
           id="g28"><g
             id="g30"><g
               id="g32"><path
                 class="st2"
                 d="m 111.4,56.6 c 14.5,-10.4 34.6,-7.2 45,7.3 10.4,14.4 7.2,34.6 -7.3,45.1 -14.5,10.4 -34.6,7.2 -45,-7.3 C 93.7,87.2 96.9,67 111.4,56.6 Z"
                 id="path34"
                 inkscape:connector-curvature="0"
                 style="fill:#232856" /><path
                 class="st1"
                 d="M 157.3,175.9"
                 id="path36"
                 inkscape:connector-curvature="0"
                 style="fill:#ffffff" /></g><g
               id="g38"><path
                 class="st2"
                 d="m 111.4,56.6 c 14.5,-10.4 34.6,-7.2 45,7.3 10.4,14.4 7.2,34.6 -7.3,45.1 -14.5,10.4 -34.6,7.2 -45,-7.3 C 93.7,87.2 96.9,67 111.4,56.6 Z"
                 id="path40"
                 inkscape:connector-curvature="0"
                 style="fill:#232856" /><path
                 class="st1"
                 d="M 157.3,175.9"
                 id="path42"
                 inkscape:connector-curvature="0"
                 style="fill:#ffffff" /></g></g><path
             class="st2"
             d="M 339.6,330.6 303,345.4 272.4,280 l -15.7,-33.6 -101.1,1.8 -2.1,-17.7 74.6,-1.3 -0.3,-26 -78.3,1.3 -11.1,-84 -23.3,-2.4 0,0 -0.1,0 7.5,72.8 0.1,0 8.4,82.3 106.6,-1.9 4.3,9.2 0.2,0.5 c 9.4,33.8 -2.4,71.4 -32.4,93.3 -38.7,28.2 -92.9,19.7 -121.2,-19 -28.3,-38.7 -19.9,-93 18.8,-121.3 3.1,-2.2 6.3,-4.2 9.5,-6 l -1.5,-14.2 -1,-10.1 c -7.2,3.2 -14.3,7.2 -20.9,12.1 -48.8,36 -59.3,104.7 -23.3,153.5 36,48.8 104.7,59.3 153.5,23.3 21.6,-15.9 35.7,-38.2 41.6,-62.4 l 23.8,50.8 62,-28.4 -11.4,-22 z"
             id="path44"
             inkscape:connector-curvature="0"
             style="fill:#232856" /></g></g></g></g><g
     id="Ebene-1_1_"
     transform="matrix(1.0538567,0,0,1.0594787,-23.761156,-0.96898538)"><path
       class="st2"
       d="m 286.9,206.4 0,-168.3 66,0 c 11.6,0 20.5,0.6 26.6,1.7 8.6,1.5 15.8,4.2 21.6,8.2 5.8,4 10.5,9.6 14,16.8 3.6,7.2 5.4,15.1 5.4,23.8 0,14.9 -4.7,27.5 -14.2,37.8 -9.5,10.3 -26.6,15.3 -51.3,15.3 l -45,0 0,64.7 -23.1,0 0,0 z m 23,-85.2 45.3,0 c 15,0 25.6,-2.7 31.9,-8.3 6.3,-5.6 9.4,-13.4 9.4,-23.5 0,-7.3 -1.9,-13.6 -5.6,-18.8 -3.6,-5.3 -8.5,-8.7 -14.6,-10.4 -3.9,-1.1 -11.1,-1.6 -21.6,-1.6 l -44.8,0 0,62.6 0,0 z"
       id="path47"
       inkscape:connector-curvature="0"
       style="fill:#232856" /></g><g
     id="Ebene-5_1_"
     transform="matrix(0.99421086,0,0,0.99951465,1.3199231,1.3156445)"><g
       id="g50"><g
         id="g52"><path
           class="st2"
           d="M 228,226.3"
           id="path54"
           inkscape:connector-curvature="0"
           style="fill:#232856" /></g></g></g></svg>