<?xml version="1.0" encoding="UTF-8" standalone="no"?>
<!-- Generator: Adobe Illustrator 22.0.1, SVG Export Plug-In . SVG Version: 6.00 Build 0)  -->

<svg
   xmlns:dc="http://purl.org/dc/elements/1.1/"
   xmlns:cc="http://creativecommons.org/ns#"
   xmlns:rdf="http://www.w3.org/1999/02/22-rdf-syntax-ns#"
   xmlns:svg="http://www.w3.org/2000/svg"
   xmlns="http://www.w3.org/2000/svg"
   xmlns:sodipodi="http://sodipodi.sourceforge.net/DTD/sodipodi-0.dtd"
   xmlns:inkscape="http://www.inkscape.org/namespaces/inkscape"
   version="1.1"
   id="Ebene_1"
   x="0px"
   y="0px"
   viewBox="1962.692 -2.5 453.5 453.5"
   enable-background="new 1962.692 -2.5 35 35"
   xml:space="preserve"
   inkscape:version="0.91 r13725"
   sodipodi:docname="Toilette-ist-teilweise-rollstuhlgerecht-invertiert.svg"
   width="453.5"
   height="453.5"><metadata
     id="metadata146"><rdf:RDF><cc:Work
         rdf:about=""><dc:format>image/svg+xml</dc:format><dc:type
           rdf:resource="http://purl.org/dc/dcmitype/StillImage" /><dc:title></dc:title></cc:Work></rdf:RDF></metadata><defs
     id="defs144" /><sodipodi:namedview
     pagecolor="#ffffff"
     bordercolor="#666666"
     borderopacity="1"
     objecttolerance="10"
     gridtolerance="10"
     guidetolerance="10"
     inkscape:pageopacity="0"
     inkscape:pageshadow="2"
     inkscape:window-width="1920"
     inkscape:window-height="1056"
     id="namedview142"
     showgrid="false"
     inkscape:zoom="1.5457868"
     inkscape:cx="220.85412"
     inkscape:cy="170.72984"
     inkscape:window-x="0"
     inkscape:window-y="24"
     inkscape:window-maximized="1"
     inkscape:current-layer="Ebene_1" /><g
     id="g8"
     transform="matrix(12.953442,0,0,12.953442,-23461.002,29.805884)"><g
       id="g10"><polygon
         style="fill:#232856"
         id="polygon12"
         points="1963.302,31.913 1963.302,-1.89 1997.105,-1.89 1997.105,31.913 " /></g></g><g
     id="g14"
     transform="matrix(12.953442,0,0,12.953442,-23461.002,29.805884)"><g
       id="g16"><path
         style="fill:#232856"
         inkscape:connector-curvature="0"
         id="path18"
         d="m 1997.708,32.516 -35.01,0 0,-35.01 35.01,0 0,35.01 z m -33.802,-1.207 32.595,0 0,-32.595 -32.595,0 0,32.595 z" /></g></g><path
     style="fill:#ffffff;stroke-width:4;stroke-miterlimit:4;stroke-dasharray:none"
     inkscape:connector-curvature="0"
     id="path27"
     d="m 2410.6922,446.99998 -444,0 0,-443.9999794 444,0 0,443.9999794 z m -439.7339,-4.28869 435.4679,0 0,-435.4225926 -435.4679,0 0,435.4225926 z" /><g
     id="g32"
     transform="matrix(12.953442,0,0,12.953442,-23461.002,29.805884)"><g
       id="g34"><g
         id="g36"><path
           style="fill:#ffffff"
           inkscape:connector-curvature="0"
           id="path38"
           d="m 1968.679,-0.095 c 1.222,0 2.213,0.991 2.213,2.213 0,1.222 -0.991,2.213 -2.213,2.213 -1.222,0 -2.213,-0.991 -2.213,-2.213 -10e-4,-1.222 0.99,-2.213 2.213,-2.213 z" /></g></g><g
       id="g40"><g
         id="g42"><path
           style="fill:#ffffff"
           inkscape:connector-curvature="0"
           id="path44"
           d="m 1968.679,4.492 c -1.309,0 -2.374,-1.065 -2.374,-2.374 0,-1.309 1.065,-2.374 2.374,-2.374 1.309,0 2.374,1.065 2.374,2.374 0,1.309 -1.065,2.374 -2.374,2.374 z m 0,-4.426 c -1.132,0 -2.052,0.921 -2.052,2.052 0,1.132 0.921,2.052 2.052,2.052 1.131,0 2.052,-0.921 2.052,-2.052 0,-1.132 -0.921,-2.052 -2.052,-2.052 z" /></g></g></g><g
     id="g46"
     transform="matrix(12.953442,0,0,12.953442,-23461.002,29.805884)"><g
       id="g48"><path
         style="fill:#ffffff"
         inkscape:connector-curvature="0"
         id="path50"
         d="m 1967.713,29.921 1.73,0 -0.024,-13.34 c 0,0 0.926,-1.489 0.95,-2.117 0.024,-0.628 -0.024,-5.151 -0.024,-5.151 l 5.618,2.881 0.668,-1.288 c 0,0 -3.968,-2.117 -4.692,-2.962 -0.724,-0.845 -1.891,-2.857 -1.891,-2.857 l -2.64,0 c 0,0 -0.684,1.288 -0.684,1.513 0,0.225 -0.04,7.268 0.04,7.968 0.08,0.7 0.926,1.891 0.926,1.891 l 0.023,13.462 z" /></g><g
       id="g52"><path
         style="fill:#ffffff"
         inkscape:connector-curvature="0"
         id="path54"
         d="m 1969.604,30.142 -2.052,0 -0.024,-13.631 c -0.155,-0.225 -0.848,-1.259 -0.925,-1.924 -0.061,-0.53 -0.057,-4.499 -0.042,-7.735 10e-4,-0.141 10e-4,-0.229 10e-4,-0.251 0,-0.24 0.491,-1.191 0.703,-1.589 l 0.045,-0.085 2.829,0 0.047,0.08 c 0.011,0.02 1.168,2.009 1.874,2.833 0.696,0.813 4.606,2.903 4.646,2.924 l 0.14,0.075 -0.815,1.571 -5.523,-2.833 c 0.01,0.988 0.042,4.349 0.021,4.892 -0.024,0.613 -0.78,1.88 -0.949,2.156 l 0.024,13.517 z m -1.731,-0.322 1.409,0 -0.024,-13.285 0.024,-0.039 c 0.251,-0.404 0.907,-1.558 0.925,-2.038 0.024,-0.617 -0.024,-5.098 -0.024,-5.143 l 0,-0.267 5.712,2.93 0.521,-1.005 c -0.724,-0.391 -3.933,-2.147 -4.599,-2.924 -0.652,-0.76 -1.634,-2.412 -1.861,-2.801 l -2.45,0 c -0.3,0.571 -0.612,1.228 -0.62,1.354 0,0.02 0,0.109 -10e-4,0.251 -0.027,6.156 0.014,7.464 0.04,7.697 0.075,0.651 0.889,1.805 0.897,1.817 l 0.03,0.042 0.024,13.411 z" /></g></g><g
     id="g56"
     transform="matrix(12.953442,0,0,12.953442,-23461.002,29.805884)"><g
       id="g58"><g
         id="g60"><g
           id="g62"><g
             id="g64"><path
               style="fill:#ffffff"
               inkscape:connector-curvature="0"
               id="path66"
               d="m 1973.543,19.382 c 1.612,-3.888 6.072,-5.733 9.96,-4.12 3.888,1.613 5.733,6.072 4.12,9.96 -1.613,3.888 -6.072,5.733 -9.96,4.12 -3.888,-1.612 -5.733,-6.071 -4.12,-9.96 z" /></g></g><g
           id="g68"><g
             id="g70"><path
               style="fill:#ffffff"
               inkscape:connector-curvature="0"
               id="path72"
               d="m 1980.583,30.118 c -1.014,0 -2.028,-0.2 -2.993,-0.6 -1.927,-0.799 -3.428,-2.301 -4.226,-4.229 -0.798,-1.928 -0.797,-4.051 0,-5.979 l 0,0 c 0.799,-1.927 2.301,-3.428 4.229,-4.226 1.928,-0.798 4.051,-0.797 5.979,0.003 1.927,0.799 3.428,2.301 4.226,4.229 0.798,1.928 0.797,4.051 0,5.979 -0.799,1.927 -2.302,3.428 -4.23,4.226 -0.962,0.398 -1.973,0.597 -2.985,0.597 z m 0,-15.252 c -0.963,0 -1.925,0.189 -2.841,0.568 -1.834,0.759 -3.263,2.187 -4.024,4.02 l 0,0 c -1.57,3.785 0.232,8.142 4.018,9.712 1.834,0.761 3.854,0.762 5.688,0.003 1.834,-0.759 3.263,-2.187 4.024,-4.02 0.76,-1.834 0.761,-3.854 0,-5.688 -0.759,-1.834 -2.187,-3.263 -4.02,-4.024 -0.919,-0.38 -1.883,-0.571 -2.848,-0.571 z" /></g></g></g><g
         id="g74"><g
           id="g76"><g
             id="g78"><g
               id="g80"><polygon
                 style="fill:#232856"
                 id="polygon82"
                 points="1986.295,20.669 1985.58,20.677 1988.051,25.981 1988.693,25.78 " /></g><g
               id="g84"><path
                 style="fill:#232856"
                 inkscape:connector-curvature="0"
                 id="path86"
                 d="m 1988.034,26.02 -2.503,-5.373 0.804,-0.031 0.01,0.019 2.414,5.143 -0.724,0.242 z m -2.405,-5.313 2.439,5.235 0.602,-0.201 -2.374,-5.059 -0.667,0.025 z" /></g></g><g
             id="g88"><g
               id="g90"><g
                 id="g92"><path
                   style="fill:#232856"
                   inkscape:connector-curvature="0"
                   id="path94"
                   d="m 1974.996,20.043 c 1.247,-3.087 4.761,-4.578 7.848,-3.331 3.087,1.247 4.578,4.761 3.331,7.848 -1.248,3.087 -4.761,4.578 -7.848,3.331 -3.087,-1.248 -4.578,-4.761 -3.331,-7.848 z" /></g></g><g
               id="g96"><g
                 id="g98"><path
                   style="fill:#232856"
                   inkscape:connector-curvature="0"
                   id="path100"
                   d="m 1980.578,28.52 c -0.774,0 -1.561,-0.146 -2.322,-0.453 -3.179,-1.285 -4.72,-4.916 -3.435,-8.095 0.622,-1.54 1.807,-2.745 3.336,-3.394 1.529,-0.649 3.219,-0.663 4.759,-0.041 1.54,0.622 2.745,1.807 3.394,3.336 0.649,1.529 0.663,3.219 0.041,4.759 -0.977,2.417 -3.312,3.888 -5.773,3.888 z m -5.406,-8.406 c -0.584,1.446 -0.571,3.033 0.039,4.469 0.609,1.436 1.741,2.548 3.187,3.132 2.985,1.206 6.395,-0.241 7.601,-3.226 0.584,-1.446 0.571,-3.033 -0.039,-4.469 -0.609,-1.436 -1.741,-2.548 -3.187,-3.132 -1.446,-0.584 -3.033,-0.571 -4.468,0.039 -1.436,0.609 -2.548,1.741 -3.133,3.187 l 0,0 z" /></g></g></g><g
             id="g102"><g
               id="g104"><polygon
                 style="fill:#232856"
                 id="polygon106"
                 points="1980.743,14.231 1977.419,14.48 1978.071,20.798 1988.638,20.613 1985.886,15.245 " /></g><g
               id="g108"><path
                 style="fill:#232856"
                 inkscape:connector-curvature="0"
                 id="path110"
                 d="m 1978.042,20.83 -0.658,-6.379 3.361,-0.252 0,10e-4 5.158,1.017 2.783,5.427 -10.648,0.186 z m -0.588,-6.321 0.646,6.257 10.487,-0.184 -2.722,-5.309 -5.124,-1.01 -3.287,0.246 z" /></g></g><g
             id="g112"><g
               id="g114"><g
                 id="g116"><polygon
                   style="fill:#ffffff"
                   id="polygon118"
                   points="1990.61,25.16 1987.391,18.287 1980.373,18.408 1980.22,17.176 1985.411,17.088 1985.379,15.285 1979.938,15.382 1979.173,9.539 1977.556,9.378 1978.658,20.146 1986.063,20.017 1989.644,27.647 1993.942,25.667 1993.161,24.13 " /></g><g
                 id="g120"><path
                   style="fill:#ffffff"
                   inkscape:connector-curvature="0"
                   id="path122"
                   d="m 1989.629,27.689 -0.013,-0.028 -3.573,-7.611 -7.413,0.129 0,-0.029 -1.107,-10.807 1.681,0.167 0,0.025 0.761,5.815 5.444,-0.097 0.033,1.866 -5.188,0.089 0.145,1.168 7.01,-0.121 0.01,0.019 3.207,6.846 2.55,-1.03 0.809,1.593 -4.355,2.006 z m -3.546,-7.704 0.01,0.019 3.568,7.601 4.239,-1.953 -0.753,-1.482 -2.552,1.031 -0.013,-0.027 -3.211,-6.855 -7.026,0.121 -0.161,-1.295 5.195,-0.088 -0.031,-1.74 -5.437,0.096 0,-0.028 -0.761,-5.818 -1.554,-0.155 1.096,10.701 7.396,-0.128 z" /></g></g></g></g></g></g></g><g
     id="g126"
     transform="matrix(12.953442,0,0,12.953442,-23461.002,29.805884)"><polygon
       style="fill:#ffffff"
       id="polygon128"
       points="1988.823,3.776 1989.612,-0.216 1990.674,-0.216 1989.419,5.498 1988.292,5.498 1987.262,1.233 1986.224,5.498 1985.073,5.498 1983.841,-0.216 1984.928,-0.216 1985.709,3.712 1986.658,-0.216 1987.914,-0.216 " /></g><g
     id="g130"
     transform="matrix(12.953442,0,0,12.953442,-23461.002,29.805884)"><path
       style="fill:#ffffff"
       inkscape:connector-curvature="0"
       id="path132"
       d="m 1994.554,3.39 1.022,0.346 c -0.153,0.628 -0.419,1.095 -0.781,1.4 -0.362,0.306 -0.829,0.459 -1.384,0.459 -0.692,0 -1.264,-0.257 -1.706,-0.781 -0.443,-0.515 -0.668,-1.231 -0.668,-2.125 0,-0.95 0.225,-1.69 0.676,-2.213 0.451,-0.523 1.038,-0.789 1.771,-0.789 0.636,0 1.159,0.209 1.553,0.62 0.233,0.241 0.419,0.596 0.531,1.054 l -1.038,0.274 c -0.064,-0.298 -0.193,-0.531 -0.386,-0.7 -0.193,-0.169 -0.435,-0.258 -0.716,-0.258 -0.386,0 -0.7,0.153 -0.942,0.459 -0.241,0.306 -0.362,0.797 -0.362,1.473 0,0.724 0.121,1.239 0.354,1.545 0.233,0.306 0.547,0.459 0.926,0.459 0.282,0 0.523,-0.096 0.724,-0.29 0.192,-0.201 0.337,-0.515 0.426,-0.933 z" /></g><path
     d="m 2166.1654,87.655956 c 15.8291,0 28.6659,12.836864 28.6659,28.665964 0,15.82911 -12.8368,28.66597 -28.6659,28.66597 -15.8291,0 -28.666,-12.83686 -28.666,-28.66597 0,-15.84206 12.8369,-28.665964 28.666,-28.665964 z"
     id="path136"
     inkscape:connector-curvature="0"
     style="fill:#ffffff" /><path
     d="m 2166.1654,147.07339 c -16.9561,0 -30.7515,-13.79541 -30.7515,-30.75147 0,-16.956052 13.7954,-30.751468 30.7515,-30.751468 16.956,0 30.7514,13.795416 30.7514,30.751468 0,16.95606 -13.7954,30.75147 -30.7514,30.75147 z m 0,-57.344883 c -14.6633,0 -26.5805,11.930123 -26.5805,26.580463 0,14.6633 11.9301,26.58046 26.5805,26.58046 14.6633,0 26.5804,-11.93012 26.5804,-26.58046 0.013,-14.65034 -11.9171,-26.580463 -26.5804,-26.580463 z"
     id="path140"
     inkscape:connector-curvature="0"
     style="fill:#ffffff" /></svg>