<?xml version="1.0" encoding="UTF-8" standalone="no"?>
<!-- Generator: Adobe Illustrator 22.0.1, SVG Export Plug-In . SVG Version: 6.00 Build 0)  -->

<svg
   xmlns:dc="http://purl.org/dc/elements/1.1/"
   xmlns:cc="http://creativecommons.org/ns#"
   xmlns:rdf="http://www.w3.org/1999/02/22-rdf-syntax-ns#"
   xmlns:svg="http://www.w3.org/2000/svg"
   xmlns="http://www.w3.org/2000/svg"
   xmlns:sodipodi="http://sodipodi.sourceforge.net/DTD/sodipodi-0.dtd"
   xmlns:inkscape="http://www.inkscape.org/namespaces/inkscape"
   version="1.1"
   id="Ebene_1"
   x="0px"
   y="0px"
   viewBox="1357.466 0 453.5 453.5"
   enable-background="new 1357.466 0 612 792"
   xml:space="preserve"
   inkscape:version="0.91 r13725"
   sodipodi:docname="Toilette-ist-rollstuhlgerecht-invertiert.svg"
   width="453.5"
   height="453.5"><metadata
     id="metadata92"><rdf:RDF><cc:Work
         rdf:about=""><dc:format>image/svg+xml</dc:format><dc:type
           rdf:resource="http://purl.org/dc/dcmitype/StillImage" /><dc:title></dc:title></cc:Work></rdf:RDF></metadata><defs
     id="defs90" /><sodipodi:namedview
     pagecolor="#ffffff"
     bordercolor="#666666"
     borderopacity="1"
     objecttolerance="10"
     gridtolerance="10"
     guidetolerance="10"
     inkscape:pageopacity="0"
     inkscape:pageshadow="2"
     inkscape:window-width="1920"
     inkscape:window-height="1056"
     id="namedview88"
     showgrid="false"
     inkscape:zoom="1.4318511"
     inkscape:cx="303.08114"
     inkscape:cy="162.37336"
     inkscape:window-x="0"
     inkscape:window-y="24"
     inkscape:window-maximized="1"
     inkscape:current-layer="Ebene_1" /><g
     id="Ebene-4_1_"
     transform="matrix(1.0424983,0,0,1.0433101,-144.73204,-140.65854)"><g
       id="g4"><g
         id="g6"><polygon
           points="1868.466,562 1448.466,562 1448.466,142 1868.466,142 "
           id="polygon8"
           style="fill:#232856" /></g><g
         id="g10"><polygon
           stroke-miterlimit="3.8637"
           points="1868.466,562 1448.466,562 1448.466,142 1868.466,142 "
           id="polygon12"
           style="fill:none;stroke:#232856;stroke-width:15;stroke-miterlimit:3.86369991" /></g></g></g><g
     id="Ebene-5_1_"
     transform="matrix(1.0662594,0,0,1.0720871,-185.63494,-148.82646)"
     style="stroke-width:1.87061117;stroke-miterlimit:4;stroke-dasharray:none"><g
       id="g15"
       style="stroke-width:1.87061117;stroke-miterlimit:4;stroke-dasharray:none"><g
         id="g17"
         style="stroke-width:1.87061117;stroke-miterlimit:4;stroke-dasharray:none"><polygon
           points="1865.365,556.1 1452.966,556.1 1452.966,145.9 1865.365,145.9 "
           id="polygon19"
           style="fill:#232856;stroke-width:1.87061117;stroke-miterlimit:4;stroke-dasharray:none" /></g><g
         id="g21"
         style="stroke-width:1.87061117;stroke-miterlimit:4;stroke-dasharray:none"><polygon
           stroke-miterlimit="3.8637"
           points="1865.365,556.1 1452.966,556.1 1452.966,145.9 1865.365,145.9 "
           id="polygon23"
           style="fill:none;stroke:#ffffff;stroke-width:1.87061117;stroke-miterlimit:4;stroke-dasharray:none" /></g></g></g><g
     id="rollifahrer_1_"
     transform="matrix(1.0424983,0,0,1.0433101,-154.73204,-138.65854)"><g
       id="g26"><g
         id="g28"><g
           id="g30"><path
             d="m 1547.768,343.535 c 43.113,-43.113 113.014,-43.113 156.127,0 43.113,43.113 43.113,113.015 0,156.128 -43.113,43.113 -113.014,43.113 -156.127,0 -43.114,-43.113 -43.114,-113.015 0,-156.128 z"
             id="path32"
             inkscape:connector-curvature="0"
             style="fill:#ffffff" /></g><g
           id="g34"><path
             stroke-miterlimit="3.8637"
             d="m 1547.768,343.535 c 43.113,-43.113 113.014,-43.113 156.127,0 43.113,43.113 43.113,113.015 0,156.128 -43.113,43.113 -113.014,43.113 -156.127,0 -43.114,-43.113 -43.114,-113.015 0,-156.128 z"
             id="path36"
             inkscape:connector-curvature="0"
             style="fill:none;stroke:#ffffff;stroke-width:5.49709988;stroke-miterlimit:3.86369991" /></g></g><g
         id="g38"><g
           id="g40"><g
             id="g42"><polygon
               points="1698.665,399.4 1733.066,476.8 1742.914,473.565 1709.414,398.866 "
               id="polygon44"
               style="fill:#232856" /><polygon
               stroke-miterlimit="3.8637"
               points="1698.665,399.4 1733.066,476.8 1743.13,474.048 1709.63,399.349 "
               id="polygon46"
               style="fill:none;stroke:#232856;stroke-width:0.9163;stroke-miterlimit:3.86369991" /></g><g
             id="g48"><g
               id="g50"><circle
                 transform="matrix(0.9445,-0.3285,0.3285,0.9445,-48.2719,557.5064)"
                 cx="1625.825"
                 cy="421.616"
                 id="ellipse52"
                 r="87.301003"
                 style="fill:#232856" /></g><g
               id="g54"><circle
                 transform="matrix(0.9445,-0.3285,0.3285,0.9445,-48.2719,557.5064)"
                 stroke-miterlimit="3.8637"
                 cx="1625.825"
                 cy="421.616"
                 id="ellipse56"
                 r="87.301003"
                 style="fill:none;stroke:#232856;stroke-width:5.49709988;stroke-miterlimit:3.86369991" /></g></g><g
             id="g58"><polygon
               points="1589.865,399.2 1742.865,399.2 1704.466,320.9 1630.166,304.8 1582.066,307.6 "
               id="polygon60"
               style="fill:#232856" /><polygon
               stroke-miterlimit="3.8637"
               points="1589.865,399.2 1742.865,399.2 1704.466,320.9 1630.166,304.8 1582.066,307.6 "
               id="polygon62"
               style="fill:none;stroke:#232856;stroke-width:0.9163;stroke-miterlimit:3.86369991" /></g><g
             id="g64"><g
               id="g66"><g
                 id="g68"><circle
                   cx="1601.266"
                   cy="194.5"
                   r="32.5"
                   id="circle70"
                   style="fill:#ffffff" /></g><g
                 id="g72"><circle
                   stroke-miterlimit="3.8637"
                   cx="1601.266"
                   cy="194.5"
                   r="32.5"
                   id="circle74"
                   style="fill:none;stroke:#ffffff;stroke-width:3.66470003;stroke-miterlimit:3.86369991" /></g></g><g
               id="g76"><polygon
                 points="1755.766,501.3 1818.466,473.8 1808,450.125 1770.365,465.5 1725.466,365.2 1623.766,365.2 1621.966,347.399 1697.066,347.399 1697.066,321.2 1618.266,321.2 1608.666,236.5 1585.266,233.8 1598.566,390 1705.766,390 "
                 id="polygon78"
                 style="fill:#ffffff" /><path
                 stroke-miterlimit="3.8637"
                 d="m 1598.566,390 107.2,0 50,111.3 62.7,-27.5 -10.387,-23.497 c -0.044,-0.099 -0.158,-0.145 -0.258,-0.104 l -37.455,15.302 -44.899,-100.3 -101.7,0 -1.8,-17.801 75.1,0 0,-26.2 -78.8,0 -9.6,-84.7 -23.4,-2.7 13.299,156.2 z"
                 id="path80"
                 inkscape:connector-curvature="0"
                 style="fill:none;stroke:#ffffff;stroke-width:0.9163;stroke-miterlimit:3.86369991" /></g></g></g></g></g><g
       id="g82"><polygon
         points="1725.665,208.8 1737.566,160.1 1753.066,160.1 1764.466,209.6 1774.266,160.1 1787.466,160.1 1771.865,231 1757.865,231 1745.066,178 1732.165,231 1717.766,231 1702.566,160.1 1716.066,160.1 "
         id="polygon84"
         style="fill:#ffffff" /><path
         d="m 1835.665,204.9 12.7,4.3 c -1.899,7.8 -5.2,13.6 -9.7,17.4 -4.5,3.8 -10.3,5.7 -17.199,5.7 -8.601,0 -15.7,-3.2 -21.2,-9.7 -5.5,-6.4 -8.3,-15.3 -8.3,-26.4 0,-11.8 2.8,-21 8.399,-27.5 5.601,-6.5 12.9,-9.8 22,-9.8 7.9,0 14.4,2.6 19.3,7.7 2.9,3 5.2,7.4 6.601,13.1 l -12.9,3.4 c -0.8,-3.7 -2.399,-6.6 -4.8,-8.7 -2.4,-2.1 -5.4,-3.2 -8.9,-3.2 -4.8,0 -8.699,1.9 -11.699,5.7 -3,3.8 -4.5,9.9 -4.5,18.3 0,9 1.5,15.4 4.399,19.2 2.9,3.8 6.8,5.7 11.5,5.7 3.5,0 6.5,-1.2 9,-3.6 2.4,-2.6 4.2,-6.4 5.299,-11.6 z"
         id="path86"
         inkscape:connector-curvature="0"
         style="fill:#ffffff" /></g></g></svg>