<?xml version="1.0" encoding="UTF-8" standalone="no"?>
<!-- Generator: Adobe Illustrator 22.0.1, SVG Export Plug-In . SVG Version: 6.00 Build 0)  -->

<svg
   xmlns:dc="http://purl.org/dc/elements/1.1/"
   xmlns:cc="http://creativecommons.org/ns#"
   xmlns:rdf="http://www.w3.org/1999/02/22-rdf-syntax-ns#"
   xmlns:svg="http://www.w3.org/2000/svg"
   xmlns="http://www.w3.org/2000/svg"
   xmlns:sodipodi="http://sodipodi.sourceforge.net/DTD/sodipodi-0.dtd"
   xmlns:inkscape="http://www.inkscape.org/namespaces/inkscape"
   version="1.1"
   id="svg2"
   inkscape:version="0.91 r13725"
   sodipodi:docname="Toilette-ist-vorhanden.svg"
   x="0px"
   y="0px"
   viewBox="0 0 453.5 453.5"
   style="enable-background:new 0 0 453.5 453.5;"
   xml:space="preserve"><metadata
     id="metadata92"><rdf:RDF><cc:Work
         rdf:about=""><dc:format>image/svg+xml</dc:format><dc:type
           rdf:resource="http://purl.org/dc/dcmitype/StillImage" /><dc:title /></cc:Work></rdf:RDF></metadata><defs
     id="defs90" /><style
     type="text/css"
     id="style3">
	.st0{fill:#232856;}
	.st1{fill:none;stroke:#232856;stroke-width:4;stroke-miterlimit:10;}
</style><sodipodi:namedview
     bordercolor="#666666"
     borderopacity="1"
     gridtolerance="10"
     guidetolerance="10"
     id="namedview4"
     inkscape:current-layer="svg2"
     inkscape:cx="226.51203"
     inkscape:cy="179.92852"
     inkscape:pageopacity="0"
     inkscape:pageshadow="2"
     inkscape:window-height="1056"
     inkscape:window-maximized="1"
     inkscape:window-width="1920"
     inkscape:window-x="0"
     inkscape:window-y="24"
     inkscape:zoom="1.1812287"
     objecttolerance="10"
     pagecolor="#ffffff"
     showgrid="false" /><g
     id="Ebene-4_1_"
     transform="matrix(0.99421086,0,0,0.99951465,-18.680077,1.3156445)"><g
       id="g7"><g
         id="g9"><path
           class="st0"
           d="M 227.3,227.3"
           id="path11"
           inkscape:connector-curvature="0"
           style="fill:#232856" /></g><g
         id="g13"><path
           class="st0"
           d="M 227.3,227.3"
           id="path15"
           inkscape:connector-curvature="0"
           style="fill:#232856" /></g></g></g><g
     id="Ebene-5_1_"
     transform="matrix(1.0890727,0,0,1.0953597,-21.558573,-21.224)"><g
       id="g18"><g
         id="g20"><path
           class="st0"
           d="M 228,226.3"
           id="path22"
           inkscape:connector-curvature="0"
           style="fill:#232856" /></g><g
         id="g24"><polygon
           class="st1"
           points="21.8,21.2 434.2,21.2 434.2,431.4 21.8,431.4 "
           id="polygon26"
           style="fill:none;stroke:#232856;stroke-width:4;stroke-miterlimit:10" /></g></g></g><g
     id="Ebene-4_2_"
     transform="matrix(0.99421086,0,0,0.99951465,-18.680077,1.3156445)"><g
       id="g29"><g
         id="g31"><path
           class="st0"
           d="M 227.3,227.3"
           id="path33"
           inkscape:connector-curvature="0"
           style="fill:#232856" /></g><g
         id="g35"><path
           class="st0"
           d="M 227.3,227.3"
           id="path37"
           inkscape:connector-curvature="0"
           style="fill:#232856" /></g></g></g><g
     id="Ebene-5_2_"
     transform="matrix(0.99421086,0,0,0.99951465,-18.680077,1.3156445)"><g
       id="g40"><g
         id="g42"><path
           class="st0"
           d="M 228,226.3"
           id="path44"
           inkscape:connector-curvature="0"
           style="fill:#232856" /></g></g></g><polygon
     class="st0"
     points="236.4,44.1 219,44.1 219.8,408.1 237.2,408.1 "
     id="polygon46"
     transform="matrix(0.99421086,0,0,0.99951465,-18.680077,1.3156445)"
     style="fill:#232856" /><path
     class="st0"
     d="M 192.02316,230.20451"
     id="path48"
     inkscape:connector-curvature="0"
     style="fill:#232856" /><path
     class="st0"
     d="M 192.02316,230.20451"
     id="path50"
     inkscape:connector-curvature="0"
     style="fill:#232856" /><path
     class="st0"
     d="M 192.61968,229.30495"
     id="path52"
     inkscape:connector-curvature="0"
     style="fill:#232856" /><path
     class="st0"
     d="M 192.61968,229.30495"
     id="path54"
     inkscape:connector-curvature="0"
     style="fill:#232856" /><path
     style="fill:#232856"
     inkscape:connector-curvature="0"
     id="path58"
     d="M 172.9922,273.58344"
     class="st0" /><path
     class="st0"
     d="m 113.93607,222.10843 c 14.1178,0.1 25.75006,-11.29451 25.84949,-25.58757 0.0994,-14.19311 -11.23459,-25.88743 -25.4518,-25.98739 -14.1178,-0.1 -25.75006,11.29452 -25.84948,25.58758 -0.0994,14.29306 11.334,25.88743 25.45179,25.98738 z"
     id="path62"
     inkscape:connector-curvature="0"
     style="fill:#232856" /><path
     class="st0"
     d="m 134.11855,228.50532 -41.16033,0 c -4.17568,0 -7.65542,3.39835 -7.65542,7.69627 l 0,0 0,70.56573 c 0,4.19796 3.38032,7.69626 7.65542,7.69626 l 41.16033,0 c 4.17569,0 7.65543,-3.39835 7.65543,-7.69626 l 0,-70.56573 c 0,-4.29792 -3.38032,-7.69627 -7.65543,-7.69627 z"
     id="path64"
     inkscape:connector-curvature="0"
     style="fill:#232856" /><path
     class="st0"
     d="m 79.23811,228.20547 -9.146735,0 c -1.391896,0 -2.485528,1.09947 -2.485528,2.49879 l 0,84.75884 c 0,1.39932 1.093632,2.49879 2.485528,2.49879 l 9.146735,0 c 1.3919,0 2.48553,-1.09947 2.48553,-2.49879 l 0,-84.75884 c 0,-1.39932 -1.09363,-2.49879 -2.48553,-2.49879 z"
     id="path66"
     inkscape:connector-curvature="0"
     style="fill:#232856" /><path
     class="st0"
     d="m 157.58193,228.70523 -9.14674,0 c -1.39189,0 -2.48553,1.09946 -2.48553,2.49878 l 0,84.75885 c 0,1.39932 1.09364,2.49878 2.48553,2.49878 l 9.14674,0 c 1.3919,0 2.48553,-1.09946 2.48553,-2.49878 l 0,-84.75885 c 0,-1.39932 -1.09363,-2.49878 -2.48553,-2.49878 z"
     id="path68"
     inkscape:connector-curvature="0"
     style="fill:#232856" /><path
     class="st0"
     d="m 106.9766,318.9614 -10.24037,0 c -1.3919,0 -2.48553,1.09947 -2.48553,2.49879 l 0,84.75884 c 0,1.39932 1.09363,2.49879 2.48553,2.49879 l 10.24037,0 c 1.39189,0 2.48552,-1.09947 2.48552,-2.49879 l 0,-84.75884 c 0,-1.39932 -1.09363,-2.49879 -2.48552,-2.49879 z"
     id="path70"
     inkscape:connector-curvature="0"
     style="fill:#232856" /><path
     class="st0"
     d="m 131.43418,318.9614 -10.24037,0 c -1.39189,0 -2.48552,1.09947 -2.48552,2.49879 l 0,84.75884 c 0,1.39932 1.09363,2.49879 2.48552,2.49879 l 10.24037,0 c 1.3919,0 2.48553,-1.09947 2.48553,-2.49879 l 0,-84.75884 c 0,-1.39932 -1.09363,-2.49879 -2.48553,-2.49879 z"
     id="path72"
     inkscape:connector-curvature="0"
     style="fill:#232856" /><path
     class="st0"
     d="m 316.12861,222.40829 c 14.1178,0 25.65064,-11.59437 25.55122,-25.78748 0,-14.19311 -11.53285,-25.78748 -25.65064,-25.68753 -14.11779,0 -25.65064,11.59437 -25.55122,25.78748 0,14.19311 11.53285,25.68753 25.65064,25.68753 z"
     id="path76"
     inkscape:connector-curvature="0"
     style="fill:#232856" /><path
     class="st0"
     d="m 306.48477,359.04194 -10.24038,0 c -1.39189,0 -2.58494,1.19942 -2.48552,2.49878 l 0,45.07812 c 0,1.39932 1.09363,2.49878 2.48552,2.49878 l 10.24038,0 c 1.39189,0 2.48552,-1.09946 2.48552,-2.49878 l 0,-45.07812 c 0,-1.39932 -1.09363,-2.49878 -2.48552,-2.49878 z"
     id="path78"
     inkscape:connector-curvature="0"
     style="fill:#232856" /><path
     class="st0"
     d="m 330.84293,359.04194 -10.24037,0 c -1.3919,0 -2.58495,1.19942 -2.48553,2.49878 l 0,45.07812 c 0,1.39932 1.09363,2.49878 2.48553,2.49878 l 10.24037,0 c 1.3919,0 2.48553,-1.09946 2.48553,-2.49878 l 0,-45.07812 c 0.0994,-1.39932 -0.99421,-2.49878 -2.48553,-2.49878 z"
     id="path80"
     inkscape:connector-curvature="0"
     style="fill:#232856" /><path
     class="st0"
     d="m 380.75232,288.87601 -48.71634,-58.77146 c -0.4971,-0.79961 -3.28089,-1.39932 -4.97105,-1.19942 l -27.44022,0 c -0.29826,0 -0.4971,0 -0.79537,0 -1.49131,-0.29985 -4.57337,0.29985 -5.16989,1.09947 l -48.71634,58.77146 c -0.69594,0.99951 -0.4971,2.49878 0.49711,3.19844 l 8.74905,6.49685 c 0.99422,0.79961 2.38611,0.59971 3.18148,-0.39981 l 24.0599,-31.2848 -26.54543,81.66034 c 0,4.19796 3.38032,7.69627 7.65543,7.69627 l 100.11703,0 c 4.17568,0 7.65542,-3.39835 7.65542,-7.69627 l -25.4518,-80.56088 23.26454,30.2853 c 0.79537,0.99951 2.18726,1.19941 3.18147,0.3998 l 8.74906,-6.49684 c 1.19305,-0.69966 1.39189,-2.19894 0.69595,-3.19845 z"
     id="path82"
     inkscape:connector-curvature="0"
     style="fill:#232856" /><g
     id="g84"
     transform="matrix(0.99421086,0,0,0.99951465,-4.6800769,1.3156445)"><polygon
       class="st0"
       points="300.2,64 285.9,122.9 269.9,122.9 253,44.1 268,44.1 278.7,98.3 291.9,44.1 309.1,44.1 321.8,99.1 332.7,44.1 347.4,44.1 330,122.9 314.5,122.9 "
       id="polygon86"
       style="fill:#232856" /><path
       class="st0"
       d="m 400.9,93.9 14.1,4.8 c -2.1,8.7 -5.8,15.1 -10.8,19.3 -5,4.2 -11.4,6.3 -19.1,6.3 -9.6,0 -17.4,-3.6 -23.6,-10.8 -6.1,-7.1 -9.2,-17 -9.2,-29.3 0,-13.1 3.1,-23.3 9.3,-30.6 6.2,-7.2 14.3,-10.9 24.4,-10.9 8.8,0 16,2.9 21.4,8.6 3.2,3.3 5.8,8.2 7.3,14.6 l -14.3,3.8 c -0.9,-4.1 -2.7,-7.3 -5.3,-9.7 -2.7,-2.3 -6,-3.6 -9.9,-3.6 -5.3,0 -9.7,2.1 -13,6.3 -3.3,4.2 -5,11 -5,20.3 0,10 1.7,17.1 4.9,21.3 3.2,4.2 7.6,6.3 12.8,6.3 3.9,0 7.2,-1.3 10,-4 2.8,-2.7 4.8,-6.9 6,-12.7 z"
       id="path88"
       inkscape:connector-curvature="0"
       style="fill:#232856" /></g></svg>