<?xml version="1.0" encoding="UTF-8" standalone="no"?>
<!-- Created with Inkscape (http://www.inkscape.org/) -->

<svg
   xmlns:dc="http://purl.org/dc/elements/1.1/"
   xmlns:cc="http://creativecommons.org/ns#"
   xmlns:rdf="http://www.w3.org/1999/02/22-rdf-syntax-ns#"
   xmlns:svg="http://www.w3.org/2000/svg"
   xmlns="http://www.w3.org/2000/svg"
   xmlns:sodipodi="http://sodipodi.sourceforge.net/DTD/sodipodi-0.dtd"
   xmlns:inkscape="http://www.inkscape.org/namespaces/inkscape"
   version="1.1"
   id="svg2"
   width="100"
   height="100"
   viewBox="0 0 100 100"
   sodipodi:docname="toilet-wheelchair.svg"
   inkscape:version="0.92.1 r">
  <metadata
     id="metadata8">
    <rdf:RDF>
      <cc:Work
         rdf:about="">
        <dc:format>image/svg+xml</dc:format>
        <dc:type
           rdf:resource="http://purl.org/dc/dcmitype/StillImage" />
        <dc:title></dc:title>
      </cc:Work>
    </rdf:RDF>
  </metadata>
  <defs
     id="defs6" />
  <sodipodi:namedview
     pagecolor="#ffffff"
     bordercolor="#666666"
     borderopacity="1"
     objecttolerance="10"
     gridtolerance="10"
     guidetolerance="10"
     inkscape:pageopacity="0"
     inkscape:pageshadow="2"
     inkscape:window-width="1920"
     inkscape:window-height="1011"
     id="namedview4"
     showgrid="false"
     inkscape:zoom="5.6568542"
     inkscape:cx="52.508259"
     inkscape:cy="52.255907"
     inkscape:window-x="0"
     inkscape:window-y="27"
     inkscape:window-maximized="1"
     inkscape:current-layer="svg2"
     inkscape:pagecheckerboard="false"
     showborder="false"
     showguides="true"
     inkscape:guide-bbox="true">
    <sodipodi:guide
       position="52.856232,71.241008"
       orientation="0,1"
       id="guide5515"
       inkscape:locked="false" />
    <sodipodi:guide
       position="67.882251,63.286057"
       orientation="1,0"
       id="guide5517"
       inkscape:locked="false" />
  </sodipodi:namedview>
  <g
     inkscape:groupmode="layer"
     id="layer3"
     inkscape:label="BGR"
     style="display:inline"
     sodipodi:insensitive="true">
    <rect
       style="opacity:1;fill:#384675;fill-opacity:1;fill-rule:nonzero;stroke:none;stroke-width:2;stroke-linecap:butt;stroke-linejoin:miter;stroke-miterlimit:4;stroke-dasharray:none;stroke-dashoffset:0;stroke-opacity:1"
       id="rect5053"
       width="100"
       height="100"
       x="0"
       y="0" />
  </g>
  <g
     inkscape:groupmode="layer"
     id="layer4"
     inkscape:label="Rahmen"
     style="display:inline"
     sodipodi:insensitive="true">
    <rect
       style="opacity:1;fill:none;fill-opacity:1;fill-rule:nonzero;stroke:#f7f7f7;stroke-width:1.88235283;stroke-linecap:butt;stroke-linejoin:miter;stroke-miterlimit:4;stroke-dasharray:none;stroke-dashoffset:0;stroke-opacity:1"
       id="rect5056"
       width="94.117645"
       height="94.117645"
       x="2.9411764"
       y="2.9411764"
       rx="9.4117641"
       ry="9.4117641" />
  </g>
  <g
     id="g4788"
     style="display:inline"
     inkscape:label="toilet-wheelchair">
    <path
       style="display:inline;fill:#f7f7f7;fill-opacity:1;stroke-width:0.44035706"
       d="m 29.654297,19.259766 a 7.5717688,7.5717688 0 0 0 -7.572266,7.572265 7.5717688,7.5717688 0 0 0 2.914063,5.958985 l 1.175781,9.517578 c 1.115742,9.033397 2.027344,16.66015 2.027344,16.947265 0,0.287102 0.396467,0.917951 0.880859,1.402344 0.830245,0.830223 1.468141,0.880859 11.126953,0.880859 h 10.246094 l 5.056641,10.16211 c 2.781047,5.589586 5.353501,10.340879 5.716796,10.55664 0.363297,0.215748 0.912279,0.396697 1.21875,0.404297 0.473346,0.01137 10.979259,-5.043735 11.515626,-5.541015 0.191918,-0.177952 -1.75834,-4.574219 -2.029297,-4.574219 -0.08453,0 -1.954116,0.904772 -4.154297,2.009766 -2.200167,1.104996 -4.0562,1.946753 -4.125,1.871093 -0.06879,-0.07566 -2.31571,-4.519652 -4.992188,-9.876953 -2.676466,-5.357299 -5.192005,-9.866868 -5.589844,-10.019531 -0.397853,-0.152642 -5.06649,-0.277344 -10.375,-0.277344 -7.845747,0 -9.652343,-0.110676 -9.652343,-0.597656 0,-0.329489 -0.125266,-1.51889 -0.279297,-2.642578 l -0.279297,-2.042969 h 8.425781 8.427735 v -2.642578 -2.642578 h -8.740235 -8.742187 l -0.726563,-5.455078 c -0.484958,-3.636584 -0.705574,-5.194836 -0.626953,-5.884766 a 7.5717688,7.5717688 0 0 0 5.546875,-3.476562 c 1.150869,-1.470672 1.533531,-3.132455 1.119141,-4.892579 a 7.5717688,7.5717688 0 0 0 -7.513672,-6.716796 z m -7.253906,28.191406 c -0.908518,0.06168 -3.712397,1.575271 -5.97461,3.283203 -3.575784,2.699657 -6.703465,7.109178 -8.1308591,11.462891 -1.4099366,4.300542 -1.3914107,10.684334 0.042969,14.753906 2.7839501,7.898549 9.4714251,13.915104 17.3789061,15.634766 10.443955,2.271279 21.190817,-2.766392 26.054687,-12.214844 l 1.734375,-3.369141 -1.974609,-4.033203 -1.974609,-4.033203 -0.345703,2.796875 c -0.762155,6.142269 -4.972902,11.853666 -10.761719,14.595703 -2.768217,1.311229 -3.316454,1.412109 -7.607422,1.412109 -4.290958,0 -4.839211,-0.100874 -7.607422,-1.412109 -3.918648,-1.856179 -7.39773,-5.337213 -9.253906,-9.255859 -1.311227,-2.768212 -1.414063,-3.316459 -1.414063,-7.607422 0,-4.30105 0.101311,-4.833924 1.429688,-7.638672 1.564934,-3.304226 5.553894,-7.624065 7.960937,-8.621094 1.386693,-0.574386 1.392784,-0.591959 1.115235,-3.058594 -0.153463,-1.363775 -0.334937,-2.546126 -0.404297,-2.628906 -0.0453,-0.05409 -0.13779,-0.07522 -0.267578,-0.06641 z"
       id="path3706-6-3"
       inkscape:connector-curvature="0"
       inkscape:label="rollstuhlfahrer" />
    <text
       xml:space="preserve"
       style="font-style:normal;font-weight:normal;font-size:37.76700974px;line-height:41.96334457px;font-family:sans-serif;letter-spacing:-1.10783148px;word-spacing:0px;display:inline;fill:#f7f7f7;fill-opacity:1;stroke:none;stroke-width:1.67853379px;stroke-linecap:butt;stroke-linejoin:miter;stroke-opacity:1"
       x="54.037941"
       y="28.944229"
       id="text3728-7-2"><tspan
         sodipodi:role="line"
         id="tspan3726-5-9"
         x="54.037941"
         y="28.944229"
         style="font-style:normal;font-variant:normal;font-weight:bold;font-stretch:normal;font-size:22.38044739px;font-family:sans-serif;-inkscape-font-specification:'sans-serif Bold';fill:#f7f7f7;fill-opacity:1;stroke-width:1.67853379px">WC</tspan></text>
  </g>
</svg>
